<?xml version="1.0" encoding="UTF-8" standalone="no"?>
<!-- Created with Inkscape (http://www.inkscape.org/) -->

<svg
   width="210mm"
   height="55mm"
   viewBox="0 0 210 55"
   version="1.1"
   id="svg1"
   xml:space="preserve"
   inkscape:version="1.3.2 (091e20ef0f, 2023-11-25, custom)"
   sodipodi:docname="eCLLA_logo.svg"
   xmlns:inkscape="http://www.inkscape.org/namespaces/inkscape"
   xmlns:sodipodi="http://sodipodi.sourceforge.net/DTD/sodipodi-0.dtd"
   xmlns:xlink="http://www.w3.org/1999/xlink"
   xmlns="http://www.w3.org/2000/svg"
   xmlns:svg="http://www.w3.org/2000/svg"><sodipodi:namedview
     id="namedview1"
     pagecolor="#ffffff"
     bordercolor="#999999"
     borderopacity="1"
     inkscape:showpageshadow="2"
     inkscape:pageopacity="0"
     inkscape:pagecheckerboard="0"
     inkscape:deskcolor="#d1d1d1"
     inkscape:document-units="mm"
     inkscape:zoom="4.7144618"
     inkscape:cx="81.451503"
     inkscape:cy="72.542745"
     inkscape:window-width="1920"
     inkscape:window-height="1001"
     inkscape:window-x="0"
     inkscape:window-y="0"
     inkscape:window-maximized="1"
     inkscape:current-layer="layer1" /><defs
     id="defs1"><linearGradient
       id="linearGradient3"
       inkscape:collect="always"><stop
         style="stop-color:#061e47;stop-opacity:1;"
         offset="0"
         id="stop3" /><stop
         style="stop-color:#326a70;stop-opacity:1;"
         offset="1"
         id="stop4" /></linearGradient><linearGradient
       inkscape:collect="always"
       xlink:href="#linearGradient3"
       id="linearGradient4"
       x1="31.801422"
       y1="229.17981"
       x2="32.464775"
       y2="184.5417"
       gradientUnits="userSpaceOnUse"
       gradientTransform="translate(-0.2228926,-178.48158)" /></defs><g
     inkscape:label="Layer 1"
     inkscape:groupmode="layer"
     id="layer1"><path
       id="path3"
       style="fill:url(#linearGradient4);fill-opacity:1"
       d="m 30.380924,3.8483895 c -4.643355,0.16624 -8.293972,1.41934 -8.286316,2.04742 0.0039,0.31771 0.142241,1.08205 0.307475,1.69808 l 0.300756,1.11983 1.884123,-0.65991 c 11.077579,-3.87907 23.632302,2.9415305 26.635067,14.4699205 0.912569,3.5036 0.996755,7.38502 0.221175,10.17819 l -0.551904,1.98799 1.166854,1.24231 c 0.641834,0.6832 1.362843,1.04631 1.601969,0.80718 1.60272,-3.06276 2.26685,-8.67187 1.53634,-11.9817 C 53.840145,15.61942 47.796667,8.1732995 39.23568,5.0927495 c -2.925372,-1.05264 -6.068743,-1.34411 -8.854756,-1.24436 z m -11.668539,0.30437 c -0.162749,0 -0.164217,0.21247 -0.0036,0.47232 0.458129,0.74127 -0.638573,3.13604 -2.305286,5.03432 -2.207806,2.3549645 -1.769406,4.9560715 -0.613908,6.9397575 0.129534,-3.95245 1.724191,-2.834272 2.969292,-5.915945 -0.343392,3.258768 -2.598106,3.65436 -2.411711,6.621198 l 1.86707,-2.06292 c 2.180538,-2.408791 2.842836,-3.82922 2.840136,-6.0936905 -0.0018,-1.50191 -1.639589,-4.99504 -2.341976,-4.99504 z m -6.423897,8.1664295 v 1.991091 c 0,1.97845 0.94754,3.93573 2.519226,5.20382 1.443164,1.1644 1.192242,-0.19872 -0.689364,-3.74551 z m 21.584212,1.2361 c -2.778499,0.19905 -5.481038,1.661931 -7.027995,4.550111 -4.192109,7.8267 3.532112,15.25947 10.889775,12.64625 l 2.519226,-0.89452 1.450558,1.3901 c 0.798054,0.76459 1.329773,1.70655 1.181323,2.09341 -0.159848,0.41655 2.206773,3.33677 5.80378,7.16132 3.340516,3.55184 6.304314,6.45801 6.586161,6.45801 0.671845,0 2.39882,-1.57299 2.39882,-2.18488 0,-0.96478 -12.504278,-13.7223 -13.191443,-13.45861 -0.403018,0.15465 -1.117711,-0.4359 -1.713073,-1.4149 l -1.021643,-1.67949 0.839742,-1.59112 c 0.481291,-0.91178 0.828583,-2.74419 0.813903,-4.29379 -0.05621,-5.93578 -4.898301,-9.113651 -9.529134,-8.781891 z m -10.753349,0.13591 c 0,-0.12368 -1.102589,0.42101 -2.449979,1.210261 -2.638248,1.54539 -3.698715,3.17386 -4.122229,6.33139 -0.147714,1.10129 -0.433062,2.00247 -0.63407,2.00247 -0.201008,0 -0.982904,-0.86769 -1.737362,-1.92805 l -1.371492,-1.92753 v 1.22215 c 0,0.72885 0.728705,1.90975 1.805058,2.92488 0.992814,0.93635 1.805057,2.14726 1.805057,2.69131 0,0.54404 0.254964,1.72048 0.566374,2.61379 0.311411,0.89331 0.879703,1.62419 1.262972,1.62419 h 0.697115 l -0.747758,-1.78852 c -1.030313,-2.46587 -1.009226,-2.53149 1.318266,-4.14445 1.799744,-1.24722 4.123779,-4.11645 4.123779,-5.09116 0,-0.61584 -4.336031,2.80913 -5.174361,4.08709 -1.473862,2.24678 -2.062585,-0.15194 -0.987537,-4.02301 0.373278,-1.34411 0.827986,-1.93373 1.490866,-1.93373 0.793038,0 4.155301,-3.13228 4.155301,-3.871081 z M 34.015844,15.0198 c 2.935506,-0.21428 5.719668,1.26629 7.262089,4.08967 1.795883,3.28734 0.470897,8.44808 -3.520199,10.11566 -2.289801,0.95674 -4.210484,0.90007 -6.376355,-0.1881 -5.354246,-2.69007 -5.543678,-10.74201 -0.311092,-13.22503 0.971754,-0.46113 1.967055,-0.72078 2.945557,-0.7922 z M 10.429687,15.47197 C 7.7124994,21.08104 6.1292456,27.32195 7.7600827,33.52409 l 2.6711543,-1.39991 c -0.6091616,-4.33813 0.02763,-8.87397 1.793172,-12.96252 z m 23.344828,0.82992 c -0.167169,0.0238 -0.437407,0.0979 -0.829923,0.22893 -3.125255,1.04284 -4.806575,3.67577 -4.18413,7.42858 1.029299,-5.87796 6.218644,-7.82863 5.014053,-7.65751 z M 23.635082,16.8972 c -0.466782,-0.46582 -5.673555,3.21672 -5.673555,4.01268 0,0.42803 0.180495,0.77824 0.401009,0.77824 0.615117,0 5.565702,-4.49836 5.272546,-4.79092 z m 86.334788,0.1912 c -1.88764,-0.0286 -3.43558,0.38345 -5.24929,1.28726 -5.952728,2.96637 -9.264078,10.3965 -7.246077,16.25844 0.992301,2.88245 3.038347,5.57859 5.280297,6.95927 l 2.11047,1.29966 3.15898,-0.22272 3.15898,-0.22325 3.12281,-1.66398 c 2.15693,-1.14963 3.03386,-1.89508 2.836,-2.4107 -0.15755,-0.41055 -0.54722,-0.67065 -0.8661,-0.57775 -0.31889,0.0929 -2.27017,0.70927 -4.33617,1.36995 l -3.75636,1.20147 -1.52445,-0.63148 c -3.36988,-1.39585 -6.16782,-5.96581 -6.17482,-10.08776 -0.005,-2.52943 1.51491,-6.94404 2.84892,-8.27805 l 1.22732,-1.22783 h 3.53518 c 4.01761,0 5.02624,0.53596 5.64152,2.99723 0.23478,0.9392 0.59754,1.69317 0.80615,1.67587 0.20861,-0.0173 0.7274,-0.0315 1.1529,-0.0315 h 0.7736 v -3.30936 -3.30988 l -2.60449,-0.5581 c -1.50798,-0.3234 -2.76279,-0.49962 -3.89537,-0.51677 z m 65.63217,0.0703 c -0.27121,0.0144 -0.61279,0.0666 -0.95912,0.15348 l -1.25935,0.31626 -1.12707,3.44837 c -0.61975,1.89651 -2.58545,6.92942 -4.3682,11.18433 l -3.24115,7.73596 -1.13792,0.50902 c -0.62588,0.28001 -1.13791,0.91847 -1.13791,1.41851 v 0.90899 l 3.48092,-0.007 c 4.05403,-0.008 5.9216,-0.40828 5.65392,-1.2113 -0.10473,-0.31422 -0.92235,-0.78147 -1.81746,-1.03818 l -1.62781,-0.46664 0.31833,-1.34617 c 0.17502,-0.74035 0.62357,-2.10065 0.99684,-3.02255 l 0.67851,-1.67587 h 4.34237 4.34237 l 0.8413,2.9993 c 1.067,3.80277 1.10969,3.56442 -0.70539,3.96307 -0.85098,0.18691 -1.54719,0.66985 -1.54719,1.0728 v 0.73225 h 4.15995 c 5.52136,0 6.7926,0.49922 4.32687,-1.96163 l -1.00872,-1.00666 -2.4536,-6.12314 c -1.34954,-3.36763 -3.24652,-8.40674 -4.21525,-11.19777 -0.96872,-2.79103 -1.86752,-5.181 -1.99781,-5.3113 -0.0651,-0.0651 -0.26623,-0.0888 -0.53743,-0.0744 z m -24.31945,0.0253 c -0.98153,0.007 -2.26403,0.0608 -3.61115,0.15968 -5.15825,0.37864 -6.40684,1.18388 -3.24269,2.09134 1.10615,0.31725 1.77435,0.89866 2.01176,1.7508 0.46093,1.65437 0.55511,14.09232 0.13022,17.19223 l -0.32814,2.39262 h -1.47691 -1.47743 v 0.95033 0.94981 h 8.96689 8.96638 l 0.31678,-2.31148 c 0.17425,-1.27128 0.31677,-2.97495 0.31677,-3.78634 v -1.47536 h -0.96996 -0.97049 l -0.56741,2.25464 -0.56792,2.25465 -1.62109,0.32401 c -0.89155,0.17831 -2.86833,0.32401 -4.39301,0.32401 h -2.77193 l 0.008,-9.67021 c 0.004,-5.31865 0.18322,-9.94575 0.39739,-10.28258 0.21418,-0.33683 1.02301,-0.85334 1.7973,-1.14773 1.44685,-0.55009 1.80184,-1.28756 0.89091,-1.85053 -0.1421,-0.0878 -0.8225,-0.12718 -1.80403,-0.11989 z m -19.63084,0.1204 -4.88342,0.1633 c -5.54448,0.18562 -6.72018,0.73433 -4.00545,1.86862 1.00864,0.42144 1.97765,1.14168 2.15388,1.60094 0.41782,1.08901 0.41617,16.13046 -0.002,18.22162 l -0.32194,1.61179 h -1.48312 -1.48259 v 0.95033 0.94981 h 8.98705 8.98653 l 0.2899,-1.079 c 0.15933,-0.59345 0.29262,-2.29712 0.29662,-3.78633 l 0.007,-2.70785 h -0.95808 -0.95808 l -0.45992,2.16008 -0.46044,2.16007 -1.71772,0.44442 c -0.94475,0.24431 -2.91735,0.37429 -4.38371,0.28939 l -2.66599,-0.15452 -0.15245,-8.50955 c -0.0836,-4.68041 -0.0132,-9.27262 0.15607,-10.20455 l 0.30747,-1.69447 1.54513,-0.30902 c 1.06166,-0.21233 1.49168,-0.56948 1.37511,-1.14205 z m 63.21164,2.24534 v 3.62407 3.62459 l -3.48144,0.15244 -3.48144,0.15245 v 0.77411 0.7736 l 3.48144,0.15244 3.48144,0.15245 v 3.58634 3.58686 h 1.00149 1.00149 l -0.30075,-3.58479 0.047,-3.72484 3.20652,-0.0145 3.55379,-0.15399 v -0.7736 -0.77411 l -3.52692,-0.15348 -3.52691,-0.15348 0.17466,-3.4494 0.17467,-3.4494 -0.90279,-0.17415 z m -20.6809,3.16984 c 0.17961,0 1.01888,1.90534 1.865,4.23385 0.84611,2.32851 1.61547,4.41713 1.70997,4.64157 0.0946,0.22443 -1.4966,0.40825 -3.53622,0.40825 h -3.7083 l 0.23048,-0.64493 c 2.38791,-6.68047 3.16745,-8.63874 3.43907,-8.63874 z m -98.004362,1.48828 -1.902726,0.59893 c -1.046361,0.32958 -2.765589,1.15394 -3.820955,1.83193 l -1.919263,1.233 -0.843876,2.90421 c -1.367423,4.70378 -0.161094,9.10116 3.030823,11.04739 1.0607,0.64674 2.582954,1.00772 4.257104,1.00872 l 2.606043,0.002 2.198315,-1.61644 c 1.209078,-0.88916 2.008965,-1.80374 1.777669,-2.03243 -0.231296,-0.22869 -1.730103,-0.0501 -3.331063,0.39688 -1.600958,0.44699 -3.496846,0.66593 -4.212662,0.48627 -1.328886,-0.33353 -3.449402,-3.16169 -3.449402,-4.60024 V 34.6702 l 3.996655,-0.31729 c 2.198374,-0.17451 4.577346,-0.6141 5.286499,-0.9772 l 1.289327,-0.66043 -0.04134,-2.1177 c -0.04951,-2.53756 -1.209315,-4.46989 -3.347083,-5.57537 z m -0.98857,2.63756 h 1.442289 l 0.543636,1.41852 c 0.299056,0.78007 0.684764,1.91994 0.856796,2.53318 l 0.312642,1.11518 -1.438672,0.2837 c -0.791251,0.15608 -2.541261,0.43482 -3.888651,0.6196 l -2.449463,0.3359 v -1.37305 c 0,-1.73286 1.250016,-4.19281 2.344043,-4.61263 0.459182,-0.1762 1.48401,-0.3204 2.27738,-0.3204 z m -55.84672,5.11442 C 16.19162,31.93864 13.180136,32.74872 9.7124183,34.0672 L 9.3289791,36.2371 10.580582,35.633 c 2.320624,-1.12052 10.209005,-3.60021 15.375289,0.0775 -4.390417,-1.44608 -8.525713,-2.40993 -15.201656,0.46199 l -1.530139,0.65836 -0.3906738,2.21227 0.2315104,-0.10077 c 3.7670914,-1.63528 5.3091804,-2.4041 9.2816034,-2.4722 3.972423,-0.0681 9.610266,2.67374 9.610266,2.67374 0,0 -6.702589,-2.01658 -9.995255,-1.96888 -2.907702,0.0422 -7.794715,1.44284 -9.2950397,2.81069 l -0.3586345,2.03088 c 0.3638734,-0.15571 0.9291431,-0.4128 1.9482012,-0.80615 9.574307,-3.74081 17.173385,0.43439 20.505725,2.88664 -0.0045,-1.41382 0.09353,-2.18724 0.09353,-4.5775 V 35.17359 C 26.306797,32.94003 22.732615,31.98261 19.342834,31.95983 Z m 21.255033,0.4231 c -3.223464,0.2542 -6.404816,1.16904 -9.226827,2.79066 v 4.69997 4.70049 l 1.418518,-1.35858 c 3.598698,-3.30761 8.757083,-3.00465 13.38678,-3.31349 L 43.46798,37.28665 c -3.33178,-0.23908 -5.87029,0.63491 -8.723498,1.48001 2.527194,-2.04016 5.781385,-2.17628 7.840865,-2.32803 l -1.837614,-1.8898 c -2.11409,0.51035 -3.711275,0.73528 -5.438428,1.35599 0.783897,-0.67455 2.796363,-1.38034 5.032726,-1.87551 -0.0373,-0.58213 0.100866,-0.87019 0.25584,-1.64637 z m 53.436532,-0.0283 -4.361491,0.11782 c -4.930607,0.13308 -5.179529,0.21381 -5.179529,1.68413 v 1.06144 l 1.160136,-0.31109 c 0.638237,-0.17104 2.859343,-0.31433 4.935616,-0.31833 l 3.774963,-0.007 -0.164847,-1.11363 z m -74.986121,8.67285 c -1.456003,-0.0267 -3.012806,0.11611 -4.744413,0.45579 -2.60489,0.55865 -4.8451027,1.35038 -7.4953284,2.82985 0.3294072,0.12074 1.3490751,0.4194 1.5949136,0.48002 3.3392288,-2.4758 13.8988248,-3.13738 20.1558748,-0.14624 1.496054,2.52574 4.669897,2.01518 5.180563,-0.007 4.709697,-1.82089 8.078404,-2.41894 14.64344,-2.18951 L 47.486229,41.51919 C 42.030403,40.72421 36.872636,40.9205 32.316723,44.46732 l -0.859379,0.62786 c -4.577279,-2.3828 -8.041051,-3.98732 -12.409062,-4.06745 z m -1.720308,2.74505 -3.617867,0.67903 1.408699,1.4702 c 1.289229,1.34567 12.065671,10.01705 26.019084,4.03593 2.407334,-1.03191 7.252787,-4.46811 7.252787,-5.14336 -1.095079,-0.5672 -2.204228,-0.89645 -3.442684,-1.03249 l -2.533695,1.60713 C 35.638996,49.68662 26.09236,49.57282 19.354723,45.11406 Z"
       sodipodi:nodetypes="sscccscccccsscssccccsscssccsscccssssscccssssssscsssssccssssssscsssscscccssccssssscssccccssccscccssssccccsscsccccsccscccsccccsscssccsssssscccccccccssccccccsccssssccsccccccccccccccccccccccsccccccsccccccccccccccccccccsssscssccsccssccsssscsccsccscccccscssssccccccccscsccccscscccccccccccccccsccccccscccccccccccccsccsccsccscs" /></g></svg>
