<?xml version="1.0" encoding="UTF-8" standalone="no"?>
<!-- Created with Inkscape (http://www.inkscape.org/) -->

<svg
   width="1900"
   height="184"
   viewBox="0 0 1900 184"
   version="1.1"
   id="svg1"
   xml:space="preserve"
   inkscape:version="1.3.2 (091e20ef0f, 2023-11-25, custom)"
   sodipodi:docname="liturgica_poloniae_full_title_flat.svg"
   xmlns:inkscape="http://www.inkscape.org/namespaces/inkscape"
   xmlns:sodipodi="http://sodipodi.sourceforge.net/DTD/sodipodi-0.dtd"
   xmlns:xlink="http://www.w3.org/1999/xlink"
   xmlns="http://www.w3.org/2000/svg"
   xmlns:svg="http://www.w3.org/2000/svg"><sodipodi:namedview
     id="namedview1"
     pagecolor="#505050"
     bordercolor="#ffffff"
     borderopacity="1"
     inkscape:showpageshadow="0"
     inkscape:pageopacity="0"
     inkscape:pagecheckerboard="1"
     inkscape:deskcolor="#d1d1d1"
     inkscape:document-units="px"
     showguides="true"
     inkscape:zoom="0.5"
     inkscape:cx="769"
     inkscape:cy="622"
     inkscape:window-width="1920"
     inkscape:window-height="1001"
     inkscape:window-x="0"
     inkscape:window-y="0"
     inkscape:window-maximized="1"
     inkscape:current-layer="text2"
     showgrid="false" /><defs
     id="defs1"><linearGradient
       id="linearGradient12"><stop
         style="stop-color:#d10000;stop-opacity:1"
         offset="0"
         id="stop11" /><stop
         style="stop-color:#bd0000;stop-opacity:1;"
         offset="1"
         id="stop12" /></linearGradient><linearGradient
       id="linearGradient2"
       inkscape:collect="always"><stop
         style="stop-color:#d20000;stop-opacity:1;"
         offset="0"
         id="stop2" /><stop
         style="stop-color:#bc0000;stop-opacity:1;"
         offset="1"
         id="stop9" /></linearGradient><linearGradient
       id="linearGradient597"><stop
         style="stop-color:#a90808;stop-opacity:1;"
         offset="0"
         id="stop596" /><stop
         style="stop-color:#3c0000;stop-opacity:1;"
         offset="1"
         id="stop597" /></linearGradient><linearGradient
       id="linearGradient595"><stop
         style="stop-color:#270202;stop-opacity:1;"
         offset="0"
         id="stop594" /><stop
         style="stop-color:#550000;stop-opacity:1;"
         offset="1"
         id="stop595" /></linearGradient><linearGradient
       id="linearGradient7"><stop
         style="stop-color:#a90808;stop-opacity:1;"
         offset="0"
         id="stop5" /><stop
         style="stop-color:#550000;stop-opacity:1;"
         offset="1"
         id="stop6" /></linearGradient><linearGradient
       id="linearGradient1"><stop
         style="stop-color:#f51919;stop-opacity:1;"
         offset="0"
         id="stop3" /><stop
         style="stop-color:#d70000;stop-opacity:1;"
         offset="1"
         id="stop4" /></linearGradient><linearGradient
       id="gradient_0"
       gradientUnits="userSpaceOnUse"
       x1="492.67029"
       y1="716.02338"
       x2="727.95654"
       y2="633.62958"
       gradientTransform="matrix(0.11839776,0,0,0.11839776,29.483543,44.919718)"><stop
         offset="0"
         stop-color="#03224A"
         id="stop7" /><stop
         offset="1"
         stop-color="#1C4971"
         id="stop8" /></linearGradient><linearGradient
       id="linearGradient15"
       gradientUnits="userSpaceOnUse"
       x1="491.96332"
       y1="804.96106"
       x2="162.27492"
       y2="598.06586"
       gradientTransform="matrix(0.11839776,0,0,0.11839776,29.483543,44.919718)"><stop
         offset="0"
         stop-color="#05244C"
         id="stop9-3" /><stop
         offset="1"
         stop-color="#1D476D"
         id="stop10-4" /></linearGradient><linearGradient
       id="linearGradient16"
       gradientUnits="userSpaceOnUse"
       x1="843.50372"
       y1="685.08618"
       x2="509.90506"
       y2="67.249397"
       gradientTransform="matrix(0.11839776,0,0,0.11839776,29.483543,44.919718)"><stop
         offset="0"
         stop-color="#072859"
         id="stop11-7" /><stop
         offset="1"
         stop-color="#356F72"
         id="stop12-2" /></linearGradient><linearGradient
       inkscape:collect="always"
       xlink:href="#linearGradient2"
       id="linearGradient5"
       gradientUnits="userSpaceOnUse"
       x1="561.15436"
       y1="25.57218"
       x2="559.13879"
       y2="155.68674"
       gradientTransform="matrix(0.37321173,0,0,0.37321173,355.48754,2.1864633)" /><linearGradient
       inkscape:collect="always"
       xlink:href="#linearGradient7"
       id="linearGradient6"
       gradientUnits="userSpaceOnUse"
       gradientTransform="matrix(1.0965727,0,0,1.0965727,568.55501,-522.86869)"
       x1="-276.46652"
       y1="500.7821"
       x2="-276.46652"
       y2="641.6853" /><linearGradient
       inkscape:collect="always"
       xlink:href="#linearGradient2"
       id="linearGradient3"
       gradientUnits="userSpaceOnUse"
       gradientTransform="matrix(0.37321173,0,0,0.37321173,355.48754,-169.98031)"
       x1="561.15436"
       y1="25.57218"
       x2="559.13879"
       y2="155.68674" /><linearGradient
       inkscape:collect="always"
       xlink:href="#linearGradient2"
       id="linearGradient4"
       gradientUnits="userSpaceOnUse"
       gradientTransform="matrix(0.37321173,0,0,0.37321173,355.48754,-169.98031)"
       x1="561.15436"
       y1="25.57218"
       x2="559.13879"
       y2="155.68674" /></defs><g
     inkscape:label="Layer 1"
     inkscape:groupmode="layer"
     id="layer1"><g
       id="g3"
       transform="matrix(1.3939972,0,0,1.3939972,19.861672,6.857635)"><g
         id="g2"
         style="font-weight:bold;font-size:83.4422px;line-height:0.9;font-family:'Noto Sans Osage';-inkscape-font-specification:'Noto Sans Osage Bold';text-align:center;text-anchor:middle;fill:url(#linearGradient6);stroke:#ffffff;stroke-width:6.82136;stroke-linecap:round;stroke-linejoin:round;paint-order:stroke fill markers"
         aria-label="Liturgica &#10;Poloniae"
         transform="translate(40.846031,171.18311)"><g
           id="text2"
           style="font-size:51.4035px;line-height:1.1;font-family:Kavoon;-inkscape-font-specification:Kavoon;letter-spacing:0px;fill:url(#linearGradient5);stroke-width:4.44511"
           aria-label="A Descriptive Catalogue of Polish Liturgical Manuscripts&#10;(Part 1: Codices Copied until ca. 1300)."><path
             style="font-family:Caudex;-inkscape-font-specification:'Caudex Bold';fill:url(#linearGradient3)"
             d="m -7.5866412,-163.80453 q 1.4055644,3.31312 3.2378181,7.60511 1.857353,4.29199 3.81510346,8.83497 1.98284984,4.54299 3.81510344,8.83498 1.8573531,4.29199 3.1374207,7.22861 0.3262917,0.80318 1.2800676,1.45577 0.5270867,0.32629 1.0792727,0.57728 0.5772854,0.251 0.9788752,0.52709 0.376491,0.27609 0.501987,0.55219 0.100398,0.17569 0.100398,0.37649 0,0.17569 -0.125497,0.40159 -0.200795,0.42668 -0.8533784,0.42668 H 0.89694417 q -0.45178857,0 -0.85337841,-0.27609 -0.42668921,-0.30119 -0.5019873,-0.57728 -0.0752981,-0.1255 -0.0752981,-0.3263 0,-0.42668 0.45178857,-0.80317 0.25099365,-0.2259 0.52708667,-0.42669 0.27609301,-0.2259 0.37649047,-0.52709 0.0501987,-0.1506 0.0501987,-0.32629 0,-0.35139 -0.17569555,-0.77808 l -3.56410982,-8.23259 H -16.597313 q -0.752981,1.80715 -1.656558,3.9657 -0.878478,2.13344 -1.782055,4.26689 -0.200795,0.45179 -0.225895,0.80318 -0.0251,0.15059 -0.0251,0.30119 0,0.20079 0.0502,0.37649 0.0753,0.25099 0.225894,0.45179 0.175696,0.20079 0.301192,0.55218 0.0251,0.251 0.0251,0.3514 0,0.17569 -0.0753,0.32629 -0.301193,0.87847 -1.154571,0.87847 h -6.475636 q -0.627484,0 -0.978875,-0.52708 0,-0.0502 -0.0502,-0.1506 0,-0.20079 0.0753,-0.47689 0.250994,-0.55218 1.154571,-0.95377 0.351391,-0.1757 0.77808,-0.37649 0.426689,-0.2008 0.828279,-0.47689 0.80318,-0.57728 1.154571,-1.38046 l 14.381937,-32.47858 z m 3.4135136,21.51015 -5.6724565,-13.22736 q -1.0039749,2.43464 -2.6103339,6.24974 -1.58126,3.8151 -2.886427,6.97762 z m 64.2794736,-5.07007 q 0.0502,0.85338 0.0502,1.63146 0,4.24179 -1.58126,7.65531 -1.907552,4.06609 -5.321066,6.70153 -5.797953,4.46768 -14.130942,4.56808 h -2.007949 q -1.455763,0 -2.735831,-0.0251 h -2.936626 q -2.108346,0 -3.187619,-0.0753 h -0.577285 q -0.978876,0 -2.585235,0.1506 -1.17967,0 -1.17967,-1.05418 0,-0.95377 1.254968,-1.40556 1.254968,-0.45179 1.254968,-1.75696 v -28.18658 q 0,-1.28007 -1.254968,-1.70676 -1.254968,-0.45178 -1.254968,-1.43066 0,-1.02907 1.154571,-1.02907 1.054173,0.0251 2.133446,0.0251 1.054173,0 2.133446,-0.0251 2.158545,-0.0753 4.241792,-0.1255 h 1.480863 q 3.865302,0 7.780803,0.20079 4.718681,0.2761 8.533784,1.90756 3.614309,1.60636 5.973649,4.89437 2.38444,3.28802 2.76093,9.08597 z m -27.634401,-12.67518 v 29.64235 q 2.560135,0.47689 5.346165,0.47689 1.079273,0 2.108347,-0.0753 3.689606,-0.27609 6.525835,-1.78206 3.363314,-1.75695 5.321065,-5.44656 1.807154,-3.41351 1.807154,-8.73458 v -0.82827 q -0.100397,-3.9657 -1.405564,-6.62624 -1.280068,-2.66053 -3.388414,-4.21669 -3.087222,-2.30914 -7.504711,-2.71073 -1.531061,-0.1255 -3.112321,-0.1255 -3.037023,0 -5.697556,0.42669 z m 30.395331,18.62373 q 0.727882,-4.79398 3.890402,-7.7306 3.16252,-2.93663 8.332989,-2.98683 h 0.100398 q 5.245767,0 8.056896,3.01193 2.735831,3.01192 2.735831,7.7557 -0.0251,1.02907 -0.100398,1.68166 -0.0753,0.65258 -1.631459,0.65258 H 68.891124 q 0.0753,3.43861 1.932651,5.97365 1.882452,2.50994 4.643383,3.06212 0.803179,0.1757 1.631458,0.1757 2.208744,0 4.593184,-1.30517 1.606359,-0.85338 2.284042,-0.85338 0.351391,0 0.652584,0.2008 0.250993,0.25099 0.250993,0.57728 0,0.42669 -0.37649,1.10437 -0.326292,0.67769 -0.552186,0.90358 -0.200795,0.2259 -0.376491,0.40159 -2.936625,2.53504 -7.9063,2.53504 -6.927424,-0.0502 -10.366037,-4.41749 -2.660533,-3.36332 -2.660533,-7.9314 0,-1.35537 0.225894,-2.81113 z m 6.048947,-0.45179 h 11.947298 q 0,-2.45973 -1.330266,-4.91947 -1.154571,-2.13345 -4.291992,-2.13345 H 74.96517 q -3.13742,0.1004 -4.568084,2.38444 -1.405565,2.25894 -1.480863,4.66848 z m 30.244733,-10.16524 q 3.865304,0.2008 7.580004,2.50994 l -0.55218,4.66848 q -0.1255,0.82828 -1.02908,0.82828 h -0.10039 q -0.72788,-0.0502 -1.12947,-0.92868 -0.82828,-1.78205 -2.43464,-2.93662 -1.581263,-1.15458 -3.363318,-1.22987 h -0.0753 q -1.380465,0 -2.710731,0.70278 -1.305167,0.67768 -1.60636,2.10835 -0.125497,0.52708 -0.125497,0.92867 0,1.30517 1.104372,1.83226 1.706757,0.85337 3.9908,1.38046 3.313114,0.72788 6.124244,2.05815 2.83623,1.30516 3.11232,5.52186 v 0.25099 q 0,1.98285 -1.53106,3.9657 -1.65656,2.15855 -4.79398,3.23782 -1.932649,0.65258 -4.26689,0.72788 h -0.70278 q -3.18762,0 -6.400339,-0.92868 l -2.158545,-5.84815 0.0753,-0.60238 q 0.0502,-0.82828 1.079273,-0.82828 h 0.125497 q 0.627484,0.1255 1.029074,0.92868 1.104372,2.35934 2.610334,3.31311 1.531061,0.92868 3.865302,1.00398 h 0.301192 q 1.631459,0 3.639402,-0.77808 1.98285,-0.77808 2.05815,-2.81113 v -0.1506 q 0,-2.35934 -2.13344,-2.96172 -2.660535,-0.75299 -4.668484,-1.33027 -2.585234,-0.70278 -4.869277,-2.25894 -2.384439,-1.60636 -2.384439,-4.69358 v -0.1255 q 0.0251,-4.1414 3.288017,-5.94855 2.886426,-1.63146 6.400338,-1.63146 0.326291,0 0.652583,0.0251 z m 23.744004,0.0502 h 0.55219 q 4.31709,0 8.18239,2.48484 l -0.45179,4.51788 q -0.1255,0.77808 -0.95378,0.77808 h -0.10039 q -0.70279,-0.0753 -1.02908,-0.85338 -0.92867,-2.03304 -2.40954,-2.91152 -1.43066,-0.85338 -3.53901,-0.85338 h -0.57728 q -2.45974,0.1255 -3.79001,1.40556 -1.22986,1.20477 -1.83225,2.93663 -0.62748,1.78205 -0.62748,3.9657 0,0.72788 0.0753,1.50596 0.251,3.61431 1.93266,5.89835 2.20874,2.93663 4.81907,3.31312 0.40159,0.0753 0.85338,0.0753 2.05815,0 4.64338,-1.43067 1.60636,-0.85337 2.28405,-0.85337 0.35139,0 0.65258,0.20079 0.22589,0.22589 0.22589,0.55219 0,0.37649 -0.35139,1.12947 -0.40159,0.85338 -1.00397,1.38046 -1.50596,1.35537 -3.73981,1.85736 -2.20874,0.52708 -4.16649,0.52708 -4.91948,-0.0251 -8.28279,-2.73583 -3.33822,-2.71073 -3.79001,-7.7055 -0.10039,-1.10438 -0.10039,-2.18365 0,-1.38046 0.17569,-2.68563 0.35139,-2.30914 1.78206,-4.59318 1.50596,-2.43464 4.24179,-3.9908 2.76093,-1.58126 6.32504,-1.73186 z m 20.0544,9.56286 v 11.26961 q 0,1.30517 1.22987,1.75696 1.25497,0.42669 1.25497,1.38046 0,1.02908 -1.12948,1.02908 h -8.50868 q -1.15457,0 -1.15457,-1.02908 0,-0.95377 1.25497,-1.38046 1.25497,-0.45179 1.25497,-1.75696 v -16.06359 q 0,-1.25497 -1.25497,-1.70676 -1.25497,-0.45179 -1.25497,-1.43066 0,-1.02908 1.12947,-1.02908 1.55616,-0.0753 3.11232,-0.50198 1.58126,-0.42669 4.0661,-1.25497 v 3.26292 l 2.61033,-0.97888 q 1.93265,-0.72788 3.03703,-1.10437 0.45178,-0.1255 1.00397,-0.1255 1.05417,0 3.01192,0.67768 l -0.62748,7.12822 h -2.23384 q -0.97888,-3.6645 -3.26292,-3.6645 -0.25099,0 -0.47689,0.0251 -1.53106,0.17569 -2.25894,1.73185 -0.72788,1.53106 -0.80318,3.76491 z m 17.69504,-20.70698 q 3.36331,0 3.36331,3.26292 0,3.28802 -3.36331,3.28802 -3.36332,0 -3.36332,-3.28802 0,-3.26292 3.36332,-3.26292 z m 2.88643,31.97659 q 0,1.30517 1.25496,1.75696 1.25497,0.42669 1.25497,1.38046 0,1.02907 -1.12947,1.02907 h -8.50868 q -1.15458,0 -1.15458,-1.02907 0,-0.95377 1.25497,-1.38046 1.25497,-0.45179 1.25497,-1.75696 v -16.06359 q 0,-1.25497 -1.25497,-1.70676 -1.25497,-0.45179 -1.25497,-1.43066 0,-1.02908 1.12948,-1.02908 1.55616,-0.0753 3.11232,-0.50198 1.58126,-0.42669 4.041,-1.25497 z m 14.88392,-18.39783 5.72266,-2.10835 q 0.82828,-0.30119 1.53106,-0.35139 0.27609,0 0.52708,0.0251 0.251,0 0.55219,0 3.8402,0.17569 6.62623,3.11232 2.66054,2.91153 3.06213,7.02782 0.10039,1.02908 0.10039,2.03305 0,1.38047 -0.17569,2.63543 -0.35139,2.23385 -1.70676,4.41749 -0.75298,1.20477 -2.38444,2.45974 -0.62748,0.45179 -1.38046,0.75298 -4.41749,1.65656 -8.1071,2.98682 -0.55218,0.2008 -1.07927,0.2008 h -0.1255 q -1.58126,-0.0753 -3.16252,-0.55219 v 10.24054 q 0,1.28007 1.25497,1.73186 1.25497,0.45179 1.25497,1.43066 0,1.00398 -1.12947,1.00398 h -8.50869 q -1.15457,0 -1.15457,-1.00398 0,-0.97887 1.25497,-1.43066 1.25497,-0.45179 1.25497,-1.73186 v -30.54592 q 0,-1.25497 -1.25497,-1.70676 -1.25497,-0.45179 -1.25497,-1.43066 0,-1.02908 1.12947,-1.02908 1.55616,-0.0753 3.11232,-0.50198 1.58126,-0.42669 4.041,-1.25497 z m 0,18.09664 q 0.82828,0.70278 2.25894,1.38046 1.43067,0.65259 2.50994,0.67769 h 0.1506 q 0.27609,0 0.67768,-0.1506 0.90358,-0.32629 1.78205,-0.65258 0.90358,-0.32629 1.80716,-0.67769 0.45179,-0.15059 0.77808,-0.50198 1.40556,-1.53106 1.93265,-3.79001 0.42669,-1.73185 0.42669,-3.46371 0,-0.55219 -0.0502,-1.10437 -0.27609,-3.46371 -1.88245,-5.64736 -1.58126,-2.15854 -3.8653,-2.81113 -0.90358,-0.25099 -1.78206,-0.25099 -0.27609,0 -0.50199,0.0251 -0.47688,0.0502 -1.12947,0.27609 -0.52708,0.2008 -1.60636,0.60239 -1.05417,0.37649 -1.50596,0.55218 z m 24.1456,-16.71618 q -0.3012,0 -2.20875,0.1004 h -0.15059 q -1.07928,0 -1.12948,-1.00397 v -0.0502 q 0,-0.67769 0.80318,-1.05418 0.47689,-0.22589 2.03305,-1.07927 0.40159,-0.2008 0.82828,-0.37649 0.0753,-0.0251 0.0753,-0.0502 0,-0.0251 -0.25099,-0.0251 v -3.79001 q 0,-1.43066 0.62748,-2.00794 0.62748,-0.60239 2.56014,-1.53106 0.82827,-0.40159 1.40556,-0.40159 1.20477,0 1.20477,1.15457 v 6.47563 l 5.34616,-0.1004 h 0.0251 q 1.00398,0 1.00398,1.15457 0,0.3765 -0.1004,0.92868 -0.35139,1.60636 -1.75695,1.60636 l -4.51789,-0.0251 v 15.23531 q 0,2.05815 1.40556,3.06213 1.43067,1.00397 2.91153,1.20477 v 1.73185 q -4.46769,0 -7.30392,-0.77808 -2.81112,-0.77808 -2.81112,-5.97365 z m 20.12969,-14.95922 q 3.36331,0 3.36331,3.26292 0,3.28802 -3.36331,3.28802 -3.36332,0 -3.36332,-3.28802 0,-3.26292 3.36332,-3.26292 z m 2.88642,31.97659 q 0,1.30517 1.25497,1.75696 1.25497,0.42669 1.25497,1.38046 0,1.02907 -1.12947,1.02907 h -8.50869 q -1.15457,0 -1.15457,-1.02907 0,-0.95377 1.25497,-1.38046 1.25497,-0.45179 1.25497,-1.75696 v -16.06359 q 0,-1.25497 -1.25497,-1.70676 -1.25497,-0.45179 -1.25497,-1.43066 0,-1.02908 1.12948,-1.02908 1.55616,-0.0753 3.11232,-0.50198 1.58126,-0.42669 4.04099,-1.25497 z m 13.93015,-16.69108 5.97365,14.60783 5.17047,-12.39908 q 0.2008,-0.45179 0.2008,-0.87848 0,-0.72788 -0.60239,-1.43066 l -1.10437,-1.33027 2.61033,-2.03305 q 0.3012,-0.32629 0.72789,-0.32629 0.47688,0 0.87847,0.40159 l 1.40557,1.43066 q 0.55218,0.57729 0.55218,1.40557 0,0.42669 -0.17569,0.97887 -0.40159,1.20477 -1.20477,2.83623 l -7.70551,17.21816 q -0.15059,0.3012 -0.32629,0.52709 -0.32629,0.32629 -0.77808,0.32629 h -2.10834 q -0.55219,0 -0.80318,-0.37649 -0.1255,-0.12549 -0.251,-0.50199 -0.12549,-0.35139 -0.17569,-0.47688 l -8.2075,-19.55241 q -0.35139,-0.80318 -1.02907,-1.25496 -0.45179,-0.3012 -1.00397,-0.52709 -0.52709,-0.251 -0.85338,-0.47689 -0.2761,-0.17569 -0.50199,-0.57728 -0.0502,-0.2008 -0.0502,-0.3263 0,-0.12549 0.0502,-0.32629 0.27609,-0.45179 0.87848,-0.45179 h 8.23259 q 0.37649,0 0.80318,0.251 0.35139,0.27609 0.47689,0.55218 0.0502,0.1757 0.0502,0.2761 0,0.40159 -0.40159,0.77808 -0.75298,0.67768 -0.80318,0.82828 -0.0502,0.15059 -0.0502,0.35139 0,0.22589 0.12549,0.47688 z m 16.86676,6.42544 q 0.72789,-4.79398 3.89041,-7.7306 3.16252,-2.93663 8.33299,-2.98683 h 0.10039 q 5.24577,0 8.0569,3.01193 2.73583,3.01192 2.73583,7.7557 -0.0251,1.02907 -0.1004,1.68166 -0.0753,0.65258 -1.63146,0.65258 h -15.36081 q 0.0753,3.43861 1.93265,5.97365 1.88246,2.50994 4.64339,3.06212 0.80318,0.1757 1.63145,0.1757 2.20875,0 4.59319,-1.30517 1.60636,-0.85338 2.28404,-0.85338 0.35139,0 0.65258,0.2008 0.251,0.25099 0.251,0.57728 0,0.42669 -0.37649,1.10437 -0.32629,0.67769 -0.55219,0.90358 -0.20079,0.2259 -0.37649,0.40159 -2.93663,2.53504 -7.9063,2.53504 -6.92742,-0.0502 -10.36604,-4.41749 -2.66053,-3.36332 -2.66053,-7.9314 0,-1.35537 0.22589,-2.81113 z m 6.04895,-0.45179 h 11.9473 q 0,-2.45973 -1.33027,-4.91947 -1.15457,-2.13345 -4.29199,-2.13345 h -0.27609 q -3.13742,0.1004 -4.56809,2.38444 -1.40556,2.25894 -1.48086,4.66848 z m 52.98477,15.8126 q -7.9565,0 -14.10584,-5.07007 -6.12425,-5.07007 -6.12425,-13.95525 0,-8.65928 5.94855,-13.90504 5.97365,-5.27087 14.28154,-5.27087 2.96173,0 6.29994,0.67768 3.36332,0.65259 6.67643,2.76093 l -0.62748,5.57206 q -0.20079,0.87848 -1.12947,0.87848 h -0.1004 q -0.70278,-0.0502 -1.20477,-1.02907 -1.55616,-3.31312 -3.8151,-4.39239 -2.25894,-1.07928 -6.09915,-1.07928 -5.32106,0 -9.51266,3.73981 -4.19159,3.71471 -4.19159,12.04769 0,5.32107 3.9406,10.26564 3.9406,4.91948 9.78875,5.19557 0.60239,0.0251 1.12947,0.0251 3.03703,0 4.99478,-0.90357 2.20874,-1.05418 3.7649,-4.39239 0.47689,-0.90358 1.17967,-1.02908 h 0.1757 q 0.92867,0 1.07927,0.90358 l 0.0753,0.70278 -2.28404,6.40034 q -2.73583,1.12947 -5.29597,1.48086 -2.56014,0.37649 -4.84418,0.37649 z m 33.23155,-2.83623 -6.02385,2.20875 q -0.92867,0.32629 -1.58126,0.32629 h -1.05417 q -3.8653,-0.2008 -6.57603,-3.06212 -2.73584,-2.91153 -3.11233,-7.05292 -0.10039,-1.05418 -0.10039,-2.05815 0,-1.33027 0.17569,-2.58524 0.32629,-2.23384 1.73186,-4.44258 0.67768,-1.17967 2.35934,-2.45974 0.62748,-0.42669 1.38046,-0.75298 2.03305,-0.75298 4.041,-1.50596 2.03305,-0.75299 4.0661,-1.50597 0.55218,-0.20079 1.05417,-0.20079 h 0.1506 q 1.70676,0.0753 4.11629,0.85338 0.251,0.0753 0.3012,0.12549 0.50198,0.2008 1.28006,0.45179 0.2008,0.0753 0.37649,0.0753 0.1506,0 0.251,-0.0753 0.47689,-0.40159 0.65258,-0.65258 0.32629,-0.42669 0.87848,-0.42669 0.27609,0 0.50199,0.1004 0.92867,0.32629 0.92867,0.95377 v 19.42691 q 0,1.30517 1.25497,1.75696 1.25497,0.42669 1.25497,1.38046 0,1.02907 -1.15457,1.02907 h -6.09915 q -1.05417,0 -1.05417,-0.82827 z m 0,-17.72015 q -0.80318,-0.75298 -2.38444,-1.50596 -1.55616,-0.75298 -2.71073,-0.80318 h -0.0753 q -0.35139,0 -0.75298,0.1506 -0.90358,0.32629 -1.80715,0.67768 -0.87848,0.32629 -1.78206,0.65258 -0.47689,0.2008 -0.75298,0.50199 -1.45576,1.55616 -1.95775,3.79001 -0.42669,1.75695 -0.42669,3.46371 0,0.52708 0.0502,1.10437 0.27609,3.48881 1.88245,5.64736 1.55616,2.18364 3.8653,2.81113 0.85338,0.25099 1.73186,0.25099 0.27609,0 0.55219,-0.0251 0.45178,-0.0502 1.12947,-0.27609 0.57728,-0.2008 1.80715,-0.65259 1.22987,-0.47689 1.63146,-0.62748 z m 14.18115,-1.55616 q -0.30119,0 -2.20874,0.1004 h -0.1506 q -1.07927,0 -1.12947,-1.00397 v -0.0502 q 0,-0.67769 0.80318,-1.05418 0.47689,-0.22589 2.03305,-1.07927 0.40159,-0.2008 0.82828,-0.37649 0.0753,-0.0251 0.0753,-0.0502 0,-0.0251 -0.25099,-0.0251 v -3.79001 q 0,-1.43066 0.62749,-2.00794 0.62748,-0.60239 2.56013,-1.53106 0.82828,-0.40159 1.40557,-0.40159 1.20476,0 1.20476,1.15457 v 6.47563 l 5.34617,-0.1004 h 0.0251 q 1.00397,0 1.00397,1.15457 0,0.3765 -0.10039,0.92868 -0.3514,1.60636 -1.75696,1.60636 l -4.51789,-0.0251 v 15.23531 q 0,2.05815 1.40557,3.06213 1.43066,1.00397 2.91153,1.20477 v 1.73185 q -4.46769,0 -7.30392,-0.77808 -2.81113,-0.77808 -2.81113,-5.97365 z m 31.92639,19.27631 -6.02384,2.20875 q -0.92868,0.32629 -1.58126,0.32629 h -1.05418 q -3.8653,-0.2008 -6.57603,-3.06212 -2.73583,-2.91153 -3.11232,-7.05292 -0.1004,-1.05418 -0.1004,-2.05815 0,-1.33027 0.1757,-2.58524 0.32629,-2.23384 1.73185,-4.44258 0.67769,-1.17967 2.35934,-2.45974 0.62749,-0.42669 1.38047,-0.75298 2.03305,-0.75298 4.041,-1.50596 2.03304,-0.75299 4.06609,-1.50597 0.55219,-0.20079 1.05418,-0.20079 h 0.15059 q 1.70676,0.0753 4.1163,0.85338 0.25099,0.0753 0.30119,0.12549 0.50199,0.2008 1.28007,0.45179 0.20079,0.0753 0.37649,0.0753 0.15059,0 0.25099,-0.0753 0.47689,-0.40159 0.65259,-0.65258 0.32629,-0.42669 0.87847,-0.42669 0.2761,0 0.50199,0.1004 0.92868,0.32629 0.92868,0.95377 v 19.42691 q 0,1.30517 1.25497,1.75696 1.25496,0.42669 1.25496,1.38046 0,1.02907 -1.15457,1.02907 h -6.09914 q -1.05418,0 -1.05418,-0.82827 z m 0,-17.72015 q -0.80318,-0.75298 -2.38444,-1.50596 -1.55616,-0.75298 -2.71073,-0.80318 h -0.0753 q -0.35139,0 -0.75298,0.1506 -0.90357,0.32629 -1.80715,0.67768 -0.87848,0.32629 -1.78206,0.65258 -0.47688,0.2008 -0.75298,0.50199 -1.45576,1.55616 -1.95775,3.79001 -0.42669,1.75695 -0.42669,3.46371 0,0.52708 0.0502,1.10437 0.2761,3.48881 1.88246,5.64736 1.55616,2.18364 3.8653,2.81113 0.85338,0.25099 1.73185,0.25099 0.2761,0 0.55219,-0.0251 0.45179,-0.0502 1.12947,-0.27609 0.57729,-0.2008 1.80716,-0.65259 1.22986,-0.47689 1.63145,-0.62748 z m 19.82851,15.46121 q 0,1.30517 1.25497,1.75696 1.25497,0.42669 1.25497,1.38046 0,1.02907 -1.12947,1.02907 h -8.50869 q -1.15457,0 -1.15457,-1.02907 0,-0.95377 1.25497,-1.38046 1.25497,-0.45179 1.25497,-1.75696 v -27.88539 q 0,-1.28007 -1.25497,-1.73186 -1.25497,-0.45179 -1.25497,-1.43066 0,-1.02908 1.12947,-1.02908 1.55616,-0.0753 3.11232,-0.47688 1.58126,-0.42669 4.041,-1.25497 z m 19.27631,-20.83247 q 5.19557,0.20079 8.73458,3.9406 3.53901,3.7398 3.61431,8.88517 v 0.1506 q 0,5.19557 -3.68961,8.80988 -3.79001,3.6896 -9.28677,3.8402 h -0.40159 q -5.12027,0 -8.80987,-3.7649 -3.73981,-3.79001 -3.73981,-8.96048 v -0.0753 q 0.0251,-5.67245 4.29199,-9.56286 0.57729,-0.52708 1.58126,-0.87847 1.00398,-0.35139 2.86133,-1.02908 1.10437,-0.40159 2.43464,-0.87848 1.38046,-0.47688 2.30914,-0.47688 z m -0.57729,2.68563 h -0.27609 q -2.58524,0 -4.51789,2.58524 -2.13344,2.88642 -2.13344,7.15331 0,4.2669 2.05815,7.32902 2.08324,3.03702 4.86927,3.16252 H 433.61 q 2.56014,0 4.46769,-2.58524 2.13345,-2.86132 2.13345,-7.12822 0,-4.26689 -2.08325,-7.30391 -2.08325,-3.06212 -4.84418,-3.21272 z m 33.23157,16.31459 v -13.62896 q -0.80318,-0.75298 -2.38444,-1.50596 -1.55616,-0.75298 -2.71073,-0.80318 h -0.0753 q -0.35139,0 -0.75298,0.1506 -0.90358,0.32629 -1.80716,0.67768 -0.87847,0.32629 -1.78205,0.65258 -0.47689,0.2008 -0.75298,0.50199 -1.45577,1.55616 -1.95775,3.79001 -0.42669,1.75695 -0.42669,3.46371 0,0.52708 0.0502,1.10437 0.27609,3.48881 1.88245,5.64736 1.55616,2.18364 3.8653,2.81113 0.85338,0.25099 1.73186,0.25099 0.27609,0 0.55218,-0.0251 0.45179,-0.0502 1.12948,-0.27609 0.57728,-0.2008 1.78205,-0.65259 1.22987,-0.45179 1.63146,-0.60238 v -1.55616 z m -0.0251,4.09119 -5.99875,2.20875 q -0.92868,0.32629 -1.58126,0.32629 H 457.856 q -3.8653,-0.2008 -6.57604,-3.06212 -2.73583,-2.91153 -3.11232,-7.05292 -0.1004,-1.05418 -0.1004,-2.05815 0,-1.33027 0.1757,-2.58524 0.32629,-2.23384 1.73186,-4.44258 0.67768,-1.17967 2.35934,-2.45974 0.62748,-0.42669 1.38046,-0.75298 2.03305,-0.75298 4.041,-1.50596 2.03305,-0.75299 4.0661,-1.50597 0.55218,-0.20079 1.05417,-0.20079 h 0.1506 q 1.70675,0.0753 4.11629,0.85338 0.251,0.0753 0.30119,0.12549 0.50199,0.2008 1.28007,0.45179 0.2008,0.0753 0.37649,0.0753 0.1506,0 0.251,-0.0753 0.47688,-0.40159 0.65258,-0.65258 0.32629,-0.42669 0.87848,-0.42669 0.27609,0 0.50199,0.1004 0.92867,0.32629 0.92867,0.95377 v 27.6093 q 0,4.34219 -1.30517,5.47166 -1.30516,1.15458 -3.6143,1.98285 l -6.90233,2.58524 q -0.92868,0.32629 -1.58126,0.32629 -0.67768,0 -1.07927,-0.0251 -3.81511,-0.1255 -6.60114,-3.11232 -1.43066,-1.55616 -2.40953,-4.0912 2.68563,-1.05417 5.62225,-2.13344 0.62749,1.78205 1.35537,2.76093 1.58126,2.15854 3.8653,2.81113 0.85338,0.22589 1.68166,0.22589 0.32629,0 0.60238,-0.0251 0.47689,-0.0502 1.12948,-0.25099 0.27609,-0.1255 0.75298,-0.3012 0.50198,-0.17569 1.00397,-0.37649 0.92868,-0.45179 1.30517,-2.15854 0.37649,-1.70676 0.37649,-2.25895 z m 35.06381,-2.25894 q 0,1.30517 1.25497,1.75696 1.25497,0.42669 1.25497,1.38046 0,1.02907 -1.15457,1.02907 h -6.09915 q -1.05417,0 -1.05417,-0.82827 v -0.82828 q -0.47689,0.17569 -1.55616,0.60238 -1.07927,0.40159 -2.03305,0.72788 -2.38444,0.80318 -4.91948,1.05418 -0.40158,0.0251 -0.75298,0.0251 -2.33424,0 -4.39238,-1.53106 -3.26292,-2.48484 -3.26292,-10.39114 v -9.06087 q 0,-1.25497 -1.25497,-1.70676 -1.25497,-0.45179 -1.25497,-1.43066 0,-1.02908 1.12947,-1.02908 1.55616,-0.0753 3.11232,-0.50198 1.58126,-0.42669 4.0661,-1.25497 v 14.98432 q 0,5.34616 2.13345,7.40431 1.28006,1.25497 3.08722,1.25497 1.07927,0 2.43464,-0.45179 0.47689,-0.15059 1.33026,-0.47689 0.85338,-0.32629 1.43067,-0.55218 0.15059,-0.0502 0.42669,-0.1506 l 0.27609,-0.1004 v -15.98829 q 0,-1.25497 -1.25497,-1.70676 -1.25497,-0.45179 -1.25497,-1.43066 0,-1.02908 1.12947,-1.02908 1.55617,-0.0753 3.11233,-0.50198 1.58126,-0.42669 4.06609,-1.25497 z m 5.62226,-10.26564 q 0.72788,-4.79398 3.8904,-7.7306 3.16252,-2.93663 8.33299,-2.98683 h 0.1004 q 5.24577,0 8.0569,3.01193 2.73583,3.01192 2.73583,7.7557 -0.0251,1.02907 -0.1004,1.68166 -0.0753,0.65258 -1.63146,0.65258 H 513.2001 q 0.0753,3.43861 1.93265,5.97365 1.88245,2.50994 4.64338,3.06212 0.80318,0.1757 1.63146,0.1757 2.20875,0 4.59319,-1.30517 1.60635,-0.85338 2.28404,-0.85338 0.35139,0 0.65258,0.2008 0.25099,0.25099 0.25099,0.57728 0,0.42669 -0.37649,1.10437 -0.32629,0.67769 -0.55218,0.90358 -0.2008,0.2259 -0.37649,0.40159 -2.93663,2.53504 -7.9063,2.53504 -6.92743,-0.0502 -10.36604,-4.41749 -2.66053,-3.36332 -2.66053,-7.9314 0,-1.35537 0.22589,-2.81113 z m 6.04895,-0.45179 h 11.9473 q 0,-2.45973 -1.33027,-4.91947 -1.15457,-2.13345 -4.29199,-2.13345 h -0.27609 q -3.13743,0.1004 -4.56809,2.38444 -1.40556,2.25894 -1.48086,4.66848 z m 46.20791,-10.11504 q 5.19557,0.20079 8.73458,3.9406 3.53901,3.7398 3.61431,8.88517 v 0.1506 q 0,5.19557 -3.68961,8.80988 -3.79,3.6896 -9.28676,3.8402 h -0.40159 q -5.12027,0 -8.80988,-3.7649 -3.73981,-3.79001 -3.73981,-8.96048 v -0.0753 q 0.0251,-5.67245 4.292,-9.56286 0.57728,-0.52708 1.58126,-0.87847 1.00397,-0.35139 2.86132,-1.02908 1.10438,-0.40159 2.43464,-0.87848 1.38047,-0.47688 2.30914,-0.47688 z m -0.57728,2.68563 h -0.2761 q -2.58523,0 -4.51788,2.58524 -2.13345,2.88642 -2.13345,7.15331 0,4.2669 2.05815,7.32902 2.08325,3.03702 4.86928,3.16252 h 0.32629 q 2.56013,0 4.46768,-2.58524 2.13345,-2.86132 2.13345,-7.12822 0,-4.26689 -2.08325,-7.30391 -2.08324,-3.06212 -4.84417,-3.21272 z m 24.22086,-3.9657 v 1.45576 l 5.34616,-0.10039 h 0.0251 q 1.00398,0 1.00398,1.15457 0,0.37649 -0.1004,0.92867 -0.35139,1.60636 -1.75696,1.60636 l -4.51788,-0.0251 v 17.09267 q 0,1.30517 1.25497,1.75696 1.25497,0.42668 1.25497,1.38046 0,1.02907 -1.15458,1.02907 h -8.50868 q -1.15457,0 -1.15457,-1.02907 0,-0.95378 1.25497,-1.38046 1.25497,-0.45179 1.25497,-1.75696 v -17.01737 q -0.3012,0 -2.20875,0.1004 h -0.15059 q -1.07928,0 -1.12948,-1.00398 v -0.0502 q 0,-0.67768 0.80318,-1.05417 0.47689,-0.22589 2.03305,-1.07927 0.40159,-0.2008 0.82828,-0.37649 0.0753,-0.0251 0.0753,-0.0502 0,-0.0251 -0.25099,-0.0251 v -1.55616 q 0,-3.23782 0.60238,-5.29597 0.40159,-1.38046 1.15457,-2.30914 0.42669,-0.55219 1.22987,-0.82828 l 6.40034,-2.38444 q 0.32629,-0.12549 1.07927,-0.17569 h 0.1255 q 0.75298,0 1.43066,0.42669 0.77808,0.55218 1.05417,1.00397 0.2008,0.40159 0.2008,1.00397 0,0.2259 -0.0251,0.45179 -0.0753,1.50597 -0.85338,1.73186 h -0.17569 q -0.50199,0 -1.20477,-0.50199 -1.02908,-0.65258 -1.98285,-0.65258 -0.55219,0 -1.10438,0.22589 -1.78205,0.75298 -2.00794,3.03703 -0.1004,0.92867 -0.1255,2.03304 0,1.07928 0,2.23385 z m 31.60015,22.11254 q 0,1.30517 1.25497,1.75696 1.25497,0.42669 1.25497,1.38046 0,1.02907 -1.12947,1.02907 h -8.50869 q -1.15457,0 -1.15457,-1.02907 0,-0.95377 1.22987,-1.38046 1.22987,-0.45179 1.22987,-1.75696 l 0.0502,-27.88539 q 0,-1.28007 -1.25497,-1.73186 -1.25497,-0.45179 -1.25497,-1.43066 0,-1.02908 1.15457,-1.02908 h 14.80863 q 2.71073,0 5.67246,0.97888 2.98682,0.95378 4.64338,3.79 1.25497,2.23385 1.25497,5.32107 -0.0502,2.96172 -1.70676,5.34616 -1.45576,2.05815 -4.1163,3.06213 -2.66053,1.00397 -4.84417,1.00397 h -8.58399 z m 0,-28.98976 v 13.65405 h 5.19557 q 1.63146,0 3.26292,-0.45179 1.65656,-0.47689 2.83623,-1.65656 1.85735,-1.78205 1.85735,-4.79398 0,-2.88642 -1.93265,-4.79397 -2.03305,-1.95775 -5.52186,-1.95775 z m 32.90526,8.15729 q 5.19557,0.20079 8.73458,3.9406 3.53901,3.7398 3.61431,8.88517 v 0.1506 q 0,5.19557 -3.68961,8.80988 -3.79001,3.6896 -9.28677,3.8402 h -0.40159 q -5.12027,0 -8.80987,-3.7649 -3.73981,-3.79001 -3.73981,-8.96048 v -0.0753 q 0.0251,-5.67245 4.29199,-9.56286 0.57729,-0.52708 1.58126,-0.87847 1.00398,-0.35139 2.86133,-1.02908 1.10437,-0.40159 2.43464,-0.87848 1.38046,-0.47688 2.30914,-0.47688 z m -0.57729,2.68563 h -0.27609 q -2.58524,0 -4.51789,2.58524 -2.13344,2.88642 -2.13344,7.15331 0,4.2669 2.05815,7.32902 2.08324,3.03702 4.86927,3.16252 h 0.32629 q 2.56014,0 4.46769,-2.58524 2.13345,-2.86132 2.13345,-7.12822 0,-4.26689 -2.08325,-7.30391 -2.08325,-3.06212 -4.84418,-3.21272 z m 24.07027,18.14684 q 0,1.30517 1.25497,1.75696 1.25497,0.42669 1.25497,1.38046 0,1.02907 -1.12948,1.02907 h -8.50868 q -1.15457,0 -1.15457,-1.02907 0,-0.95377 1.25497,-1.38046 1.25497,-0.45179 1.25497,-1.75696 v -27.88539 q 0,-1.28007 -1.25497,-1.73186 -1.25497,-0.45179 -1.25497,-1.43066 0,-1.02908 1.12947,-1.02908 1.55616,-0.0753 3.11232,-0.47688 1.58126,-0.42669 4.041,-1.25497 z m 12.34888,-31.97659 q 3.36331,0 3.36331,3.26292 0,3.28802 -3.36331,3.28802 -3.36331,0 -3.36331,-3.28802 0,-3.26292 3.36331,-3.26292 z m 2.88643,31.97659 q 0,1.30517 1.25497,1.75696 1.25496,0.42669 1.25496,1.38046 0,1.02907 -1.12947,1.02907 h -8.50868 q -1.15457,0 -1.15457,-1.02907 0,-0.95377 1.25496,-1.38046 1.25497,-0.45179 1.25497,-1.75696 v -16.06359 q 0,-1.25497 -1.25497,-1.70676 -1.25496,-0.45179 -1.25496,-1.43066 0,-1.02908 1.12947,-1.02908 1.55616,-0.0753 3.11232,-0.50198 1.58126,-0.42669 4.041,-1.25497 z m 16.76642,-20.88267 q 3.8653,0.2008 7.58001,2.50994 l -0.55219,4.66848 q -0.12549,0.82828 -1.02907,0.82828 h -0.1004 q -0.72788,-0.0502 -1.12947,-0.92868 -0.82828,-1.78205 -2.43464,-2.93662 -1.58126,-1.15458 -3.36331,-1.22987 h -0.0753 q -1.38047,0 -2.71073,0.70278 -1.30517,0.67768 -1.60636,2.10835 -0.1255,0.52708 -0.1255,0.92867 0,1.30517 1.10437,1.83226 1.70676,0.85337 3.9908,1.38046 3.31312,0.72788 6.12425,2.05815 2.83623,1.30516 3.11232,5.52186 v 0.25099 q 0,1.98285 -1.53106,3.9657 -1.65656,2.15855 -4.79398,3.23782 -1.93265,0.65258 -4.26689,0.72788 h -0.70279 q -3.18761,0 -6.40033,-0.92868 l -2.15855,-5.84815 0.0753,-0.60238 q 0.0502,-0.82828 1.07927,-0.82828 h 0.1255 q 0.62748,0.1255 1.02907,0.92868 1.10438,2.35934 2.61034,3.31311 1.53106,0.92868 3.8653,1.00398 h 0.30119 q 1.63146,0 3.63941,-0.77808 1.98285,-0.77808 2.05815,-2.81113 v -0.1506 q 0,-2.35934 -2.13345,-2.96172 -2.66053,-0.75299 -4.66848,-1.33027 -2.58524,-0.70278 -4.86928,-2.25894 -2.38444,-1.60636 -2.38444,-4.69358 v -0.1255 q 0.0251,-4.1414 3.28802,-5.94855 2.88643,-1.63146 6.40034,-1.63146 0.32629,0 0.65258,0.0251 z m 19.55237,20.88267 q 0,1.30517 1.25497,1.75696 1.25497,0.42669 1.25497,1.38046 0,1.02907 -1.12947,1.02907 h -8.50869 q -1.15457,0 -1.15457,-1.02907 0,-0.95377 1.25497,-1.38046 1.25497,-0.45179 1.25497,-1.75696 v -27.88539 q 0,-1.28007 -1.25497,-1.73186 -1.25497,-0.45179 -1.25497,-1.43066 0,-1.02908 1.12947,-1.02908 1.55616,-0.0753 3.11233,-0.47688 1.58126,-0.42669 4.04099,-1.25497 v 15.26041 q 0.50199,-0.17569 1.55616,-0.57728 1.05418,-0.40159 2.00795,-0.72789 2.40954,-0.85337 4.96968,-1.10437 0.35139,-0.0251 0.70278,-0.0251 2.35934,0 4.44259,1.58126 3.23782,2.48484 3.23782,10.36604 v 9.03577 q 0,1.30517 1.25496,1.75696 1.25497,0.42669 1.25497,1.38046 0,1.02907 -1.12947,1.02907 h -6.09915 q -1.05417,0 -1.05417,-0.82827 v -12.37399 q 0,-5.32106 -2.13344,-7.40431 -1.28007,-1.25497 -3.08723,-1.25497 -1.07927,0 -2.38444,0.42669 -0.55218,0.20079 -1.40556,0.52709 -0.82828,0.30119 -1.45576,0.55218 -0.57729,0.2008 -0.67769,0.251 z m 45.95697,0.80318 h 10.08994 q 2.00795,0 3.51391,-1.68166 1.53106,-1.68165 2.35934,-2.68563 0.65259,-0.77808 1.22987,-0.77808 1.15457,0 1.15457,1.02907 0,0.3765 -0.0753,0.62749 l -1.93265,6.85212 h -23.493 q -1.15457,0 -1.15457,-1.02907 0,-0.95377 1.25496,-1.38046 1.25497,-0.45179 1.25497,-1.75696 v -27.88539 q 0,-1.28007 -1.25497,-1.73186 -1.25496,-0.45179 -1.25496,-1.43066 0,-1.02908 1.15457,-1.02908 h 8.50868 q 1.12947,0 1.12947,1.02908 0,0.97887 -1.25497,1.43066 -1.25496,0.45179 -1.25496,1.73186 z m 27.40849,-32.77977 q 3.36331,0 3.36331,3.26292 0,3.28802 -3.36331,3.28802 -3.36332,0 -3.36332,-3.28802 0,-3.26292 3.36332,-3.26292 z m 2.88643,31.97659 q 0,1.30517 1.25496,1.75696 1.25497,0.42669 1.25497,1.38046 0,1.02907 -1.12947,1.02907 h -8.50868 q -1.15457,0 -1.15457,-1.02907 0,-0.95377 1.25496,-1.38046 1.25497,-0.45179 1.25497,-1.75696 v -16.06359 q 0,-1.25497 -1.25497,-1.70676 -1.25496,-0.45179 -1.25496,-1.43066 0,-1.02908 1.12947,-1.02908 1.55616,-0.0753 3.11232,-0.50198 1.58126,-0.42669 4.041,-1.25497 z m 8.98556,-17.01737 q -0.3012,0 -2.20875,0.1004 h -0.15059 q -1.07928,0 -1.12948,-1.00397 v -0.0502 q 0,-0.67769 0.80318,-1.05418 0.47689,-0.22589 2.03305,-1.07927 0.40159,-0.2008 0.82828,-0.37649 0.0753,-0.0251 0.0753,-0.0502 0,-0.0251 -0.25099,-0.0251 v -3.79001 q 0,-1.43066 0.62748,-2.00794 0.62748,-0.60239 2.56014,-1.53106 0.82827,-0.40159 1.40556,-0.40159 1.20477,0 1.20477,1.15457 v 6.47563 l 5.34616,-0.1004 h 0.0251 q 1.00398,0 1.00398,1.15457 0,0.3765 -0.1004,0.92868 -0.35139,1.60636 -1.75695,1.60636 l -4.51789,-0.0251 v 15.23531 q 0,2.05815 1.40556,3.06213 1.43067,1.00397 2.91153,1.20477 v 1.73185 q -4.46769,0 -7.30392,-0.77808 -2.81112,-0.77808 -2.81112,-5.97365 z m 39.28053,17.01737 q 0,1.30517 1.25497,1.75696 1.25497,0.42669 1.25497,1.38046 0,1.02907 -1.15457,1.02907 h -6.09915 q -1.05417,0 -1.05417,-0.82827 v -0.82828 q -0.47689,0.17569 -1.55616,0.60238 -1.07927,0.40159 -2.03305,0.72788 -2.38444,0.80318 -4.91947,1.05418 -0.40159,0.0251 -0.75299,0.0251 -2.33424,0 -4.39238,-1.53106 -3.26292,-2.48484 -3.26292,-10.39114 v -9.06087 q 0,-1.25497 -1.25497,-1.70676 -1.25497,-0.45179 -1.25497,-1.43066 0,-1.02908 1.12947,-1.02908 1.55616,-0.0753 3.11232,-0.50198 1.58126,-0.42669 4.0661,-1.25497 v 14.98432 q 0,5.34616 2.13345,7.40431 1.28006,1.25497 3.08722,1.25497 1.07927,0 2.43464,-0.45179 0.47689,-0.15059 1.33026,-0.47689 0.85338,-0.32629 1.43067,-0.55218 0.15059,-0.0502 0.42669,-0.1506 l 0.27609,-0.1004 v -15.98829 q 0,-1.25497 -1.25497,-1.70676 -1.25497,-0.45179 -1.25497,-1.43066 0,-1.02908 1.12947,-1.02908 1.55617,-0.0753 3.11233,-0.50198 1.58126,-0.42669 4.06609,-1.25497 z m 15.10979,-11.26961 v 11.26961 q 0,1.30517 1.22987,1.75696 1.25497,0.42669 1.25497,1.38046 0,1.02907 -1.12947,1.02907 h -8.50869 q -1.15457,0 -1.15457,-1.02907 0,-0.95377 1.25497,-1.38046 1.25497,-0.45179 1.25497,-1.75696 v -16.06359 q 0,-1.25497 -1.25497,-1.70676 -1.25497,-0.45179 -1.25497,-1.43066 0,-1.02908 1.12947,-1.02908 1.55616,-0.0753 3.11232,-0.50198 1.58126,-0.42669 4.0661,-1.25497 v 3.26292 l 2.61034,-0.97888 q 1.93265,-0.72788 3.03702,-1.10437 0.45179,-0.1255 1.00397,-0.1255 1.05418,0 3.01193,0.67768 l -0.62749,7.12822 h -2.23384 q -0.97888,-3.6645 -3.26292,-3.6645 -0.25099,0 -0.47689,0.0251 -1.53106,0.17569 -2.25894,1.73185 -0.72788,1.53106 -0.80318,3.76491 z m 29.49179,9.43736 v -13.62896 q -0.80318,-0.75298 -2.38444,-1.50596 -1.55616,-0.75298 -2.71073,-0.80318 h -0.0753 q -0.35139,0 -0.75298,0.1506 -0.90358,0.32629 -1.80716,0.67768 -0.87847,0.32629 -1.78205,0.65258 -0.47689,0.2008 -0.75298,0.50199 -1.45577,1.55616 -1.95775,3.79001 -0.42669,1.75695 -0.42669,3.46371 0,0.52708 0.0502,1.10437 0.27609,3.48881 1.88245,5.64736 1.55616,2.18364 3.8653,2.81113 0.85338,0.25099 1.73186,0.25099 0.27609,0 0.55218,-0.0251 0.45179,-0.0502 1.12947,-0.27609 0.57729,-0.2008 1.78206,-0.65259 1.22987,-0.45179 1.63146,-0.60238 v -1.55616 z m -0.0251,4.09119 -5.99875,2.20875 q -0.92868,0.32629 -1.58126,0.32629 h -1.05417 q -3.86531,-0.2008 -6.57604,-3.06212 -2.73583,-2.91153 -3.11232,-7.05292 -0.1004,-1.05418 -0.1004,-2.05815 0,-1.33027 0.1757,-2.58524 0.32629,-2.23384 1.73186,-4.44258 0.67768,-1.17967 2.35934,-2.45974 0.62748,-0.42669 1.38046,-0.75298 2.03305,-0.75298 4.041,-1.50596 2.03305,-0.75299 4.0661,-1.50597 0.55218,-0.20079 1.05417,-0.20079 h 0.1506 q 1.70675,0.0753 4.11629,0.85338 0.251,0.0753 0.30119,0.12549 0.50199,0.2008 1.28007,0.45179 0.2008,0.0753 0.37649,0.0753 0.1506,0 0.251,-0.0753 0.47688,-0.40159 0.65258,-0.65258 0.32629,-0.42669 0.87848,-0.42669 0.27609,0 0.50198,0.1004 0.92868,0.32629 0.92868,0.95377 v 27.6093 q 0,4.34219 -1.30517,5.47166 -1.30516,1.15458 -3.6143,1.98285 l -6.90233,2.58524 q -0.92868,0.32629 -1.58126,0.32629 -0.67768,0 -1.07927,-0.0251 -3.81511,-0.1255 -6.60114,-3.11232 -1.43066,-1.55616 -2.40953,-4.0912 2.68563,-1.05417 5.62225,-2.13344 0.62749,1.78205 1.35537,2.76093 1.58126,2.15854 3.8653,2.81113 0.85338,0.22589 1.68166,0.22589 0.32629,0 0.60238,-0.0251 0.47689,-0.0502 1.12947,-0.25099 0.2761,-0.1255 0.75299,-0.3012 0.50198,-0.17569 1.00397,-0.37649 0.92868,-0.45179 1.30517,-2.15854 0.37649,-1.70676 0.37649,-2.25895 z m 15.91297,-34.23553 q 3.36331,0 3.36331,3.26292 0,3.28802 -3.36331,3.28802 -3.36332,0 -3.36332,-3.28802 0,-3.26292 3.36332,-3.26292 z m 2.88642,31.97659 q 0,1.30517 1.25497,1.75696 1.25497,0.42669 1.25497,1.38046 0,1.02907 -1.12947,1.02907 h -8.50869 q -1.15457,0 -1.15457,-1.02907 0,-0.95377 1.25497,-1.38046 1.25497,-0.45179 1.25497,-1.75696 v -16.06359 q 0,-1.25497 -1.25497,-1.70676 -1.25497,-0.45179 -1.25497,-1.43066 0,-1.02908 1.12947,-1.02908 1.55617,-0.0753 3.11233,-0.50198 1.58126,-0.42669 4.04099,-1.25497 z m 18.32253,-20.83247 h 0.55218 q 4.31709,0 8.1824,2.48484 l -0.45179,4.51788 q -0.1255,0.77808 -0.95378,0.77808 h -0.1004 q -0.70278,-0.0753 -1.02907,-0.85338 -0.92868,-2.03304 -2.40954,-2.91152 -1.43066,-0.85338 -3.53901,-0.85338 h -0.57728 q -2.45974,0.1255 -3.79001,1.40556 -1.22987,1.20477 -1.83225,2.93663 -0.62749,1.78205 -0.62749,3.9657 0,0.72788 0.0753,1.50596 0.251,3.61431 1.93265,5.89835 2.20875,2.93663 4.81908,3.31312 0.40159,0.0753 0.85338,0.0753 2.05815,0 4.64338,-1.43067 1.60636,-0.85338 2.28404,-0.85338 0.3514,0 0.65259,0.2008 0.22589,0.22589 0.22589,0.55219 0,0.37649 -0.35139,1.12947 -0.40159,0.85338 -1.00397,1.38046 -1.50597,1.35537 -3.73981,1.85735 -2.20874,0.52709 -4.16649,0.52709 -4.91948,-0.0251 -8.28279,-2.73583 -3.33822,-2.71073 -3.79001,-7.7055 -0.1004,-1.10438 -0.1004,-2.18365 0,-1.38046 0.1757,-2.68563 0.35139,-2.30914 1.78205,-4.59318 1.50597,-2.43464 4.2418,-3.9908 2.76093,-1.58126 6.32504,-1.73186 z m 28.68858,23.09141 -6.02385,2.20875 q -0.92868,0.32629 -1.58126,0.32629 h -1.05417 q -3.86531,-0.2008 -6.57604,-3.06212 -2.73583,-2.91153 -3.11232,-7.05292 -0.1004,-1.05418 -0.1004,-2.05815 0,-1.33027 0.1757,-2.58524 0.32629,-2.23384 1.73186,-4.44258 0.67768,-1.17967 2.35934,-2.45974 0.62748,-0.42669 1.38046,-0.75298 2.03305,-0.75298 4.041,-1.50596 2.03305,-0.75299 4.0661,-1.50597 0.55218,-0.20079 1.05417,-0.20079 h 0.1506 q 1.70675,0.0753 4.11629,0.85338 0.251,0.0753 0.30119,0.12549 0.50199,0.2008 1.28007,0.45179 0.2008,0.0753 0.37649,0.0753 0.1506,0 0.251,-0.0753 0.47688,-0.40159 0.65258,-0.65258 0.32629,-0.42669 0.87848,-0.42669 0.27609,0 0.50198,0.1004 0.92868,0.32629 0.92868,0.95377 v 19.42691 q 0,1.30517 1.25497,1.75696 1.25497,0.42669 1.25497,1.38046 0,1.02907 -1.15457,1.02907 h -6.09915 q -1.05417,0 -1.05417,-0.82827 z m 0,-17.72015 q -0.80318,-0.75298 -2.38444,-1.50596 -1.55616,-0.75298 -2.71073,-0.80318 h -0.0753 q -0.35139,0 -0.75298,0.1506 -0.90358,0.32629 -1.80716,0.67768 -0.87847,0.32629 -1.78205,0.65258 -0.47689,0.2008 -0.75298,0.50199 -1.45577,1.55616 -1.95775,3.79001 -0.42669,1.75695 -0.42669,3.46371 0,0.52708 0.0502,1.10437 0.27609,3.48881 1.88245,5.64736 1.55616,2.18364 3.8653,2.81113 0.85338,0.25099 1.73186,0.25099 0.27609,0 0.55218,-0.0251 0.45179,-0.0502 1.12948,-0.27609 0.57728,-0.2008 1.80715,-0.65259 1.22987,-0.47689 1.63146,-0.62748 z m 19.82848,15.46121 q 0,1.30517 1.25496,1.75696 1.25497,0.42669 1.25497,1.38046 0,1.02907 -1.12947,1.02907 h -8.50868 q -1.15457,0 -1.15457,-1.02907 0,-0.95377 1.25496,-1.38046 1.25497,-0.45179 1.25497,-1.75696 v -27.88539 q 0,-1.28007 -1.25497,-1.73186 -1.25496,-0.45179 -1.25496,-1.43066 0,-1.02908 1.12947,-1.02908 1.55616,-0.0753 3.11232,-0.47688 1.58126,-0.42669 4.041,-1.25497 z m 61.79458,-27.88539 v 27.88539 q 0,1.30517 1.255,1.75696 1.2801,0.42669 1.2801,1.38046 0,1.02907 -1.1546,1.02907 h -8.5087 q -1.1546,0 -1.1546,-1.02907 0,-0.95377 1.255,-1.38046 1.255,-0.45179 1.255,-1.75696 v -24.09539 l -13.4282,29.01487 h -1.8322 l -13.2776,-27.8854 v 22.96592 q 0,1.30517 1.255,1.75696 1.2549,0.42669 1.2549,1.38046 0,1.02907 -1.1545,1.02907 h -6.37528 q -1.15457,0 -1.15457,-1.02907 0,-0.95377 1.25496,-1.38046 1.25499,-0.45179 1.25499,-1.75696 v -27.88539 q 0,-1.28007 -1.25499,-1.73186 -1.25496,-0.45179 -1.25496,-1.43066 0,-1.02908 1.15457,-1.02908 h 7.10308 l 13.3027,27.25791 12.876,-27.25791 h 7.4294 q 1.1546,0 1.1546,1.02908 0,0.97887 -1.2801,1.43066 -1.255,0.45179 -1.255,1.73186 z m 24.0453,30.14433 -6.0239,2.20875 q -0.9287,0.32629 -1.5812,0.32629 h -1.0542 q -3.8653,-0.2008 -6.576,-3.06212 -2.7359,-2.91153 -3.1124,-7.05292 -0.1004,-1.05418 -0.1004,-2.05815 0,-1.33027 0.1757,-2.58524 0.3263,-2.23384 1.7319,-4.44258 0.6777,-1.17967 2.3593,-2.45974 0.6275,-0.42669 1.3805,-0.75298 2.033,-0.75298 4.041,-1.50596 2.033,-0.75299 4.0661,-1.50597 0.5522,-0.20079 1.0542,-0.20079 h 0.1506 q 1.7067,0.0753 4.1163,0.85338 0.251,0.0753 0.3011,0.12549 0.502,0.2008 1.2801,0.45179 0.2008,0.0753 0.3765,0.0753 0.1506,0 0.251,-0.0753 0.4769,-0.40159 0.6526,-0.65258 0.3263,-0.42669 0.8785,-0.42669 0.2761,0 0.5019,0.1004 0.9287,0.32629 0.9287,0.95377 v 19.42691 q 0,1.30517 1.255,1.75696 1.255,0.42669 1.255,1.38046 0,1.02907 -1.1546,1.02907 h -6.0992 q -1.0541,0 -1.0541,-0.82827 z m 0,-17.72015 q -0.8032,-0.75298 -2.3845,-1.50596 -1.5561,-0.75298 -2.7107,-0.80318 h -0.075 q -0.3514,0 -0.753,0.1506 -0.9036,0.32629 -1.8071,0.67768 -0.8785,0.32629 -1.7821,0.65258 -0.4769,0.2008 -0.753,0.50199 -1.4557,1.55616 -1.9577,3.79001 -0.4267,1.75695 -0.4267,3.46371 0,0.52708 0.05,1.10437 0.2761,3.48881 1.8824,5.64736 1.5562,2.18364 3.8653,2.81113 0.8534,0.25099 1.7319,0.25099 0.2761,0 0.5522,-0.0251 0.4518,-0.0502 1.1295,-0.27609 0.5772,-0.2008 1.8071,-0.65259 1.2299,-0.47689 1.6315,-0.62748 z m 19.3265,-3.08722 q 0.502,-0.17569 1.5561,-0.57728 1.0542,-0.40159 2.008,-0.72789 2.4095,-0.85337 4.9696,-1.10437 0.3514,-0.0251 0.7028,-0.0251 2.3594,0 4.4426,1.58126 3.2378,2.48484 3.2378,10.36604 v 9.03577 q 0,1.30517 1.255,1.75696 1.255,0.42669 1.255,1.38046 0,1.02907 -1.1295,1.02907 h -6.0991 q -1.0542,0 -1.0542,-0.82827 v -12.37399 q 0,-5.32106 -2.1335,-7.40431 -1.28,-1.25497 -3.0872,-1.25497 -1.0793,0 -2.3844,0.42669 -0.5522,0.20079 -1.4056,0.52709 -0.8283,0.30119 -1.4558,0.55218 -0.5772,0.2008 -0.6776,0.251 v 15.93809 q 0,1.30517 1.2549,1.75696 1.255,0.42669 1.255,1.38046 0,1.02907 -1.1295,1.02907 h -8.5087 q -1.1545,0 -1.1545,-1.02907 0,-0.95377 1.2549,-1.38046 1.255,-0.45179 1.255,-1.75696 v -16.06359 q 0,-1.25497 -1.255,-1.70676 -1.2549,-0.45179 -1.2549,-1.43066 0,-1.02908 1.1294,-1.02908 1.5562,-0.0753 3.1124,-0.50198 1.5812,-0.42669 4.041,-1.25497 z m 46.9106,18.54843 q 0,1.30517 1.255,1.75696 1.255,0.42669 1.255,1.38046 0,1.02907 -1.1546,1.02907 h -6.0991 q -1.0542,0 -1.0542,-0.82827 v -0.82828 q -0.4769,0.17569 -1.5562,0.60238 -1.0792,0.40159 -2.033,0.72788 -2.3845,0.80318 -4.9195,1.05418 -0.4016,0.0251 -0.753,0.0251 -2.3342,0 -4.3924,-1.53106 -3.2629,-2.48484 -3.2629,-10.39114 v -9.06087 q 0,-1.25497 -1.2549,-1.70676 -1.255,-0.45179 -1.255,-1.43066 0,-1.02908 1.1295,-1.02908 1.5561,-0.0753 3.1123,-0.50198 1.5812,-0.42669 4.0661,-1.25497 v 14.98432 q 0,5.34616 2.1334,7.40431 1.2801,1.25497 3.0872,1.25497 1.0793,0 2.4347,-0.45179 0.4769,-0.15059 1.3302,-0.47689 0.8534,-0.32629 1.4307,-0.55218 0.1506,-0.0502 0.4267,-0.1506 l 0.2761,-0.1004 v -15.98829 q 0,-1.25497 -1.255,-1.70676 -1.2549,-0.45179 -1.2549,-1.43066 0,-1.02908 1.1294,-1.02908 1.5562,-0.0753 3.1123,-0.50198 1.5813,-0.42669 4.0661,-1.25497 z m 16.7163,-20.88267 q 3.8653,0.2008 7.58,2.50994 l -0.5522,4.66848 q -0.1255,0.82828 -1.0291,0.82828 h -0.1004 q -0.7279,-0.0502 -1.1295,-0.92868 -0.8282,-1.78205 -2.4346,-2.93662 -1.5813,-1.15458 -3.3633,-1.22987 h -0.075 q -1.3805,0 -2.7108,0.70278 -1.3051,0.67768 -1.6063,2.10835 -0.1255,0.52708 -0.1255,0.92867 0,1.30517 1.1044,1.83226 1.7067,0.85337 3.9908,1.38046 3.3131,0.72788 6.1242,2.05815 2.8362,1.30516 3.1123,5.52186 v 0.25099 q 0,1.98285 -1.531,3.9657 -1.6566,2.15855 -4.794,3.23782 -1.9327,0.65258 -4.2669,0.72788 h -0.7028 q -3.1876,0 -6.4003,-0.92868 l -2.1586,-5.84815 0.075,-0.60238 q 0.05,-0.82828 1.0793,-0.82828 h 0.1255 q 0.6275,0.1255 1.0291,0.92868 1.1043,2.35934 2.6103,3.31311 1.5311,0.92868 3.8653,1.00398 h 0.3012 q 1.6315,0 3.6394,-0.77808 1.9829,-0.77808 2.0582,-2.81113 v -0.1506 q 0,-2.35934 -2.1335,-2.96172 -2.6605,-0.75299 -4.6685,-1.33027 -2.5852,-0.70278 -4.8692,-2.25894 -2.3845,-1.60636 -2.3845,-4.69358 v -0.1255 q 0.025,-4.1414 3.288,-5.94855 2.8865,-1.63146 6.4004,-1.63146 0.3263,0 0.6526,0.0251 z m 23.744,0.0502 h 0.5522 q 4.3171,0 8.1824,2.48484 l -0.4518,4.51788 q -0.1255,0.77808 -0.9538,0.77808 h -0.1004 q -0.7028,-0.0753 -1.0291,-0.85338 -0.9287,-2.03304 -2.4095,-2.91152 -1.4307,-0.85338 -3.539,-0.85338 h -0.5773 q -2.4598,0.1255 -3.79,1.40556 -1.2299,1.20477 -1.8323,2.93663 -0.6275,1.78205 -0.6275,3.9657 0,0.72788 0.075,1.50596 0.251,3.61431 1.9327,5.89835 2.2087,2.93663 4.8191,3.31312 0.4016,0.0753 0.8534,0.0753 2.0581,0 4.6433,-1.43067 1.6064,-0.85337 2.2841,-0.85337 0.3514,0 0.6526,0.20079 0.2259,0.22589 0.2259,0.55219 0,0.37649 -0.3514,1.12947 -0.4016,0.85338 -1.004,1.38046 -1.506,1.35537 -3.7398,1.85736 -2.2088,0.52708 -4.1665,0.52708 -4.9195,-0.0251 -8.2828,-2.73583 -3.3382,-2.71073 -3.79,-7.7055 -0.1004,-1.10438 -0.1004,-2.18365 0,-1.38046 0.1757,-2.68563 0.3514,-2.30914 1.782,-4.59318 1.506,-2.43464 4.2418,-3.9908 2.761,-1.58126 6.3251,-1.73186 z m 20.0544,9.56286 v 11.26961 q 0,1.30517 1.2298,1.75696 1.255,0.42669 1.255,1.38046 0,1.02908 -1.1295,1.02908 h -8.5086 q -1.1546,0 -1.1546,-1.02908 0,-0.95377 1.255,-1.38046 1.2549,-0.45179 1.2549,-1.75696 v -16.06359 q 0,-1.25497 -1.2549,-1.70676 -1.255,-0.45179 -1.255,-1.43066 0,-1.02908 1.1295,-1.02908 1.5561,-0.0753 3.1123,-0.50198 1.5812,-0.42669 4.0661,-1.25497 v 3.26292 l 2.6103,-0.97888 q 1.9327,-0.72788 3.037,-1.10437 0.4518,-0.1255 1.004,-0.1255 1.0542,0 3.0119,0.67768 l -0.6275,7.12822 h -2.2338 q -0.9789,-3.6645 -3.2629,-3.6645 -0.251,0 -0.4769,0.0251 -1.5311,0.17569 -2.2589,1.73185 -0.7279,1.53106 -0.8032,3.76491 z m 17.695,-20.70698 q 3.3633,0 3.3633,3.26292 0,3.28802 -3.3633,3.28802 -3.3633,0 -3.3633,-3.28802 0,-3.26292 3.3633,-3.26292 z m 2.8864,31.97659 q 0,1.30517 1.255,1.75696 1.255,0.42669 1.255,1.38046 0,1.02908 -1.1295,1.02908 h -8.5087 q -1.1546,0 -1.1546,-1.02908 0,-0.95377 1.255,-1.38046 1.255,-0.45179 1.255,-1.75696 v -16.06359 q 0,-1.25497 -1.255,-1.70676 -1.255,-0.45179 -1.255,-1.43066 0,-1.02908 1.1295,-1.02908 1.5562,-0.0753 3.1123,-0.50198 1.5813,-0.42669 4.041,-1.25497 z m 14.8839,-18.39783 5.7227,-2.10835 q 0.8283,-0.30119 1.5311,-0.35139 0.276,0 0.527,0.0251 0.251,0 0.5522,0 3.8402,0.1757 6.6263,3.11232 2.6605,2.91153 3.0621,7.02782 0.1004,1.02908 0.1004,2.03305 0,1.38047 -0.1757,2.63543 -0.3514,2.23385 -1.7068,4.41749 -0.753,1.20477 -2.3844,2.45974 -0.6275,0.45179 -1.3805,0.75298 -4.4175,1.65656 -8.1071,2.98682 -0.5522,0.2008 -1.0792,0.2008 h -0.1255 q -1.5813,-0.0753 -3.1626,-0.55219 v 10.24054 q 0,1.28007 1.255,1.73186 1.255,0.45179 1.255,1.43066 0,1.00398 -1.1295,1.00398 h -8.5087 q -1.1546,0 -1.1546,-1.00398 0,-0.97887 1.255,-1.43066 1.255,-0.45179 1.255,-1.73186 v -30.54592 q 0,-1.25497 -1.255,-1.70676 -1.255,-0.45179 -1.255,-1.43066 0,-1.02908 1.1295,-1.02908 1.5562,-0.0753 3.1123,-0.50198 1.5813,-0.42669 4.041,-1.25497 z m 0,18.09664 q 0.8283,0.70278 2.259,1.38046 1.4306,0.65259 2.5099,0.67769 h 0.1506 q 0.2761,0 0.6777,-0.1506 0.9036,-0.32629 1.7821,-0.65258 0.9035,-0.32629 1.8071,-0.67768 0.4518,-0.1506 0.7781,-0.50199 1.4056,-1.53106 1.9326,-3.79001 0.4267,-1.73185 0.4267,-3.46371 0,-0.55218 -0.05,-1.10437 -0.2761,-3.46371 -1.8824,-5.64736 -1.5813,-2.15854 -3.8653,-2.81113 -0.9036,-0.25099 -1.7821,-0.25099 -0.2761,0 -0.502,0.0251 -0.4769,0.0502 -1.1294,0.27609 -0.5271,0.2008 -1.6064,0.60239 -1.0542,0.37649 -1.506,0.55218 z m 24.1456,-16.71618 q -0.3012,0 -2.2087,0.1004 h -0.1506 q -1.0793,0 -1.1295,-1.00397 v -0.0502 q 0,-0.67769 0.8032,-1.05418 0.4769,-0.22589 2.0331,-1.07927 0.4015,-0.20079 0.8282,-0.37649 0.075,-0.0251 0.075,-0.0502 0,-0.0251 -0.251,-0.0251 v -3.79 q 0,-1.43067 0.6275,-2.00795 0.6275,-0.60239 2.5602,-1.53106 0.8282,-0.40159 1.4055,-0.40159 1.2048,0 1.2048,1.15457 v 6.47563 l 5.3462,-0.10039 h 0.025 q 1.0039,0 1.0039,1.15457 0,0.37649 -0.1004,0.92867 -0.3514,1.60636 -1.7569,1.60636 l -4.5179,-0.0251 v 15.23532 q 0,2.05814 1.4056,3.06212 1.4306,1.00397 2.9115,1.20477 v 1.73185 q -4.4677,0 -7.3039,-0.77808 -2.8112,-0.77808 -2.8112,-5.97365 z m 24.8986,-3.8653 q 3.8653,0.2008 7.58,2.50994 l -0.5521,4.66848 q -0.1255,0.82828 -1.0291,0.82828 h -0.1004 q -0.7279,-0.0502 -1.1295,-0.92868 -0.8283,-1.78205 -2.4346,-2.93662 -1.5813,-1.15457 -3.3633,-1.22987 h -0.075 q -1.3805,0 -2.7108,0.70278 -1.3051,0.67768 -1.6063,2.10835 -0.1255,0.52708 -0.1255,0.92867 0,1.30517 1.1043,1.83226 1.7068,0.85337 3.9908,1.38046 3.3132,0.72788 6.1243,2.05815 2.8362,1.30517 3.1123,5.52186 v 0.25099 q 0,1.98285 -1.531,3.9657 -1.6566,2.15855 -4.794,3.23782 -1.9327,0.65258 -4.2669,0.72788 h -0.7028 q -3.1876,0 -6.4003,-0.92868 l -2.1586,-5.84815 0.075,-0.60238 q 0.05,-0.82828 1.0793,-0.82828 h 0.1255 q 0.6275,0.1255 1.0291,0.92868 1.1043,2.35934 2.6103,3.31311 1.5311,0.92868 3.8653,1.00398 h 0.3012 q 1.6314,0 3.6394,-0.77808 1.9828,-0.77808 2.0581,-2.81113 v -0.1506 q 0,-2.35934 -2.1334,-2.96172 -2.6605,-0.75298 -4.6685,-1.33027 -2.5852,-0.70278 -4.8693,-2.25894 -2.3844,-1.60636 -2.3844,-4.69358 v -0.1255 q 0.025,-4.1414 3.288,-5.94855 2.8864,-1.63146 6.4004,-1.63146 0.3262,0 0.6525,0.0251 z"
             id="path7" /><path
             style="font-family:Caudex;-inkscape-font-specification:'Caudex Bold';fill:url(#linearGradient4)"
             d="m 187.04638,-88.985608 q 0,-3.488811 0.45179,-6.70153 0.47689,-3.237818 2.08325,-5.722652 0.80318,-1.28007 1.63146,-2.33424 0.82828,-1.07928 2.20874,-1.90756 2.68564,-1.65655 5.32107,-1.65655 1.17967,0 1.17967,1.25496 0,0.67769 -0.1506,0.82828 -0.22589,0.35139 -1.63146,0.67769 -1.40556,0.32629 -2.88642,1.83225 -1.63146,1.60636 -2.33424,4.793978 -0.70279,3.212719 -0.70279,11.872 v 3.589209 q 0,8.70948 0.70279,11.922201 0.70278,3.13742 2.35934,4.76888 0.87847,0.82828 1.60636,1.25497 0.72788,0.42668 1.90755,0.77808 0.87848,0.30119 1.10437,0.65258 0,0.1506 0.0251,0.62748 v 0.1255 q 0,0.52709 -0.25099,0.82828 -0.3514,0.35139 -1.02908,0.35139 -1.95775,0 -4.0159,-1.00397 -2.13344,-1.02908 -3.9908,-3.41352 -1.85735,-2.38444 -2.61033,-4.89437 -0.97888,-3.288021 -0.97888,-8.985577 z m 25.27507,15.335712 q 0,1.305167 1.25496,1.756954 1.25497,0.42669 1.25497,1.38047 0,1.02907 -1.12947,1.02907 h -8.50868 q -1.15457,0 -1.15457,-1.02907 0,-0.95378 1.22986,-1.38047 1.22987,-0.451787 1.22987,-1.756954 l 0.0502,-27.885394 q 0,-1.28007 -1.25497,-1.73186 -1.25496,-0.45179 -1.25496,-1.43066 0,-1.02907 1.15457,-1.02907 h 14.80862 q 2.71073,0 5.67246,0.97887 2.98682,0.95378 4.64338,3.79 1.25497,2.233849 1.25497,5.321071 -0.0502,2.961725 -1.70676,5.346164 -1.45576,2.058148 -4.11629,3.062123 -2.66054,1.003974 -4.84418,1.003974 h -8.58398 z m 0,-28.989764 v 13.654052 h 5.19556 q 1.63146,0 3.26292,-0.451788 1.65656,-0.476888 2.83623,-1.656558 1.85735,-1.782055 1.85735,-4.793979 0,-2.886427 -1.93265,-4.793977 -2.03305,-1.95775 -5.52186,-1.95775 z m 37.77454,31.248708 -6.02384,2.20874 q -0.92868,0.3263 -1.58126,0.3263 h -1.05418 q -3.8653,-0.2008 -6.57603,-3.06213 -2.73583,-2.911524 -3.11232,-7.052919 -0.1004,-1.054173 -0.1004,-2.058148 0,-1.330266 0.17569,-2.585235 0.3263,-2.233843 1.73186,-4.442587 0.67768,-1.17967 2.35934,-2.459738 0.62749,-0.426689 1.38047,-0.752981 2.03305,-0.752981 4.04099,-1.505962 2.03305,-0.752981 4.0661,-1.505962 0.55219,-0.200795 1.05417,-0.200795 h 0.1506 q 1.70676,0.0753 4.1163,0.853379 0.25099,0.0753 0.30119,0.125497 0.50199,0.200794 1.28007,0.451788 0.20079,0.0753 0.37649,0.0753 0.15059,0 0.25099,-0.0753 0.47689,-0.40159 0.65258,-0.652583 0.3263,-0.42669 0.87848,-0.42669 0.2761,0 0.50199,0.100398 0.92868,0.326292 0.92868,0.953776 v 19.426908 q 0,1.305167 1.25496,1.756954 1.25497,0.42669 1.25497,1.38047 0,1.02907 -1.15457,1.02907 h -6.09914 q -1.05418,0 -1.05418,-0.82828 z m 0,-17.720153 q -0.80318,-0.752981 -2.38444,-1.505961 -1.55616,-0.752981 -2.71073,-0.80318 h -0.0753 q -0.35139,0 -0.75298,0.150596 -0.90357,0.326292 -1.80715,0.677683 -0.87848,0.326292 -1.78206,0.652583 -0.47688,0.200795 -0.75298,0.501988 -1.45576,1.55616 -1.95775,3.790004 -0.42669,1.756955 -0.42669,3.463712 0,0.527087 0.0502,1.104372 0.27609,3.488812 1.88245,5.647357 1.55616,2.183645 3.86531,2.811129 0.85337,0.250994 1.73185,0.250994 0.2761,0 0.55219,-0.0251 0.45179,-0.0502 1.12947,-0.276093 0.57729,-0.200795 1.80715,-0.652584 1.22987,-0.476888 1.63146,-0.627484 z m 20.35558,4.191594 v 11.269615 q 0,1.305167 1.22987,1.756954 1.25497,0.42669 1.25497,1.38047 0,1.02907 -1.12947,1.02907 h -8.50869 q -1.15457,0 -1.15457,-1.02907 0,-0.95378 1.25497,-1.38047 1.25497,-0.451787 1.25497,-1.756954 v -16.063593 q 0,-1.254969 -1.25497,-1.706757 -1.25497,-0.451789 -1.25497,-1.430664 0,-1.029074 1.12947,-1.029074 1.55616,-0.0753 3.11233,-0.501987 1.58126,-0.426689 4.06609,-1.254968 v 3.262917 l 2.61034,-0.978875 q 1.93265,-0.727882 3.03702,-1.104372 0.45179,-0.125497 1.00397,-0.125497 1.05418,0 3.01193,0.677683 l -0.62749,7.128219 h -2.23384 q -0.97887,-3.664507 -3.26292,-3.664507 -0.25099,0 -0.47689,0.0251 -1.53106,0.175696 -2.25894,1.731857 -0.72788,1.531061 -0.80318,3.764903 z m 14.68313,-5.747754 q -0.30119,0 -2.20874,0.100397 h -0.1506 q -1.07927,0 -1.12947,-1.003974 v -0.0502 q 0,-0.677683 0.80318,-1.054173 0.47689,-0.225895 2.03305,-1.079273 0.40159,-0.200795 0.82828,-0.376491 0.0753,-0.0251 0.0753,-0.0502 0,-0.0251 -0.251,-0.0251 v -3.790004 q 0,-1.430664 0.62749,-2.007947 0.62748,-0.60239 2.56013,-1.53106 0.82828,-0.40159 1.40557,-0.40159 1.20477,0 1.20477,1.15457 v 6.475634 l 5.34616,-0.100398 h 0.0251 q 1.00398,0 1.00398,1.154571 0,0.376491 -0.1004,0.928677 -0.35139,1.606359 -1.75696,1.606359 l -4.51788,-0.0251 v 15.235314 q 0,2.058148 1.40556,3.062123 1.43066,1.003974 2.91153,1.204774 v 1.73185 q -4.46769,0 -7.30392,-0.77808 -2.81113,-0.77808 -2.81113,-5.973648 z m 35.13911,21.183863 q -1.12947,0 -1.12947,-1.00397 0,-0.92868 1.20477,-1.35537 1.22987,-0.451788 1.22987,-1.706756 v -26.479832 h -4.96967 v -1.65656 q 0,-1.07927 1.58126,-1.65656 1.60636,-0.60238 3.8151,-1.20476 1.28007,-0.3263 2.45974,-0.65259 1.17967,-0.32629 2.76093,-0.80318 v 32.453482 q 0,1.254968 1.20477,1.706756 1.22987,0.42669 1.22987,1.35537 0,1.00397 -1.12948,1.00397 z m 22.76514,-24.798172 q 3.38841,0 3.38841,2.685632 v 2.058148 q 0,2.685632 -3.38841,2.685632 -3.38842,0 -3.38842,-2.685632 v -2.058148 q 0,-2.685632 3.38842,-2.685632 z m 0,18.021344 q 3.38841,0 3.38841,2.685632 v 2.058146 q 0,2.66054 -3.38841,2.66054 -3.38842,0 -3.38842,-2.66054 v -2.058146 q 0,-2.685632 3.38842,-2.685632 z m 41.48924,7.705508 q -7.9565,0 -14.10585,-5.070074 -6.12424,-5.070072 -6.12424,-13.955247 0,-8.659281 5.94855,-13.905047 5.97365,-5.27087 14.28154,-5.27087 2.96172,0 6.29994,0.67768 3.36331,0.65259 6.67643,2.76093 l -0.62749,5.572064 q -0.20079,0.878478 -1.12947,0.878478 h -0.10039 q -0.70279,-0.0502 -1.20477,-1.029074 -1.55616,-3.313118 -3.81511,-4.392388 -2.25894,-1.07927 -6.09914,-1.07927 -5.32107,0 -9.51266,3.739801 -4.1916,3.714707 -4.1916,12.047696 0,5.321065 3.9406,10.26564 3.9406,4.919476 9.78876,5.195571 0.60238,0.0251 1.12947,0.0251 3.03702,0 4.99477,-0.90358 2.20875,-1.054174 3.76491,-4.392389 0.47688,-0.903577 1.17967,-1.029074 h 0.17569 q 0.92868,0 1.07927,0.903577 l 0.0753,0.702782 -2.28404,6.400334 q -2.73583,1.12948 -5.29597,1.48087 -2.56013,0.37649 -4.84417,0.37649 z m 28.36228,-25.927647 q 5.19557,0.200795 8.73458,3.940601 3.53901,3.739805 3.61431,8.885175 v 0.150596 q 0,5.195569 -3.68961,8.809877 -3.79,3.689608 -9.28676,3.840208 h -0.40159 q -5.12027,0 -8.80988,-3.76491 -3.7398,-3.790004 -3.7398,-8.960473 v -0.0753 q 0.0251,-5.672457 4.29199,-9.562858 0.57728,-0.527087 1.58126,-0.878478 1.00397,-0.351391 2.86133,-1.029074 1.10437,-0.40159 2.43463,-0.878478 1.38047,-0.476888 2.30915,-0.476888 z m -0.57728,2.685632 h -0.2761 q -2.58523,0 -4.51788,2.585235 -2.13345,2.886427 -2.13345,7.153319 0,4.266892 2.05815,7.329015 2.08325,3.037026 4.86928,3.162516 h 0.32629 q 2.56013,0 4.46769,-2.585231 2.13344,-2.861328 2.13344,-7.12822 0,-4.266892 -2.08324,-7.303915 -2.08325,-3.062122 -4.84418,-3.212719 z m 33.73355,20.405785 -6.02385,2.20874 q -0.92867,0.3263 -1.58126,0.3263 h -1.05417 q -3.8653,-0.2008 -6.57603,-3.06213 -2.73583,-2.911524 -3.11232,-7.052919 -0.1004,-1.054173 -0.1004,-2.058148 0,-1.330266 0.17569,-2.585235 0.32629,-2.233843 1.73186,-4.442587 0.67768,-1.17967 2.35934,-2.459738 0.62748,-0.426689 1.38046,-0.752981 2.03305,-0.752981 4.041,-1.505962 2.03305,-0.752981 4.0661,-1.505962 0.55219,-0.200795 1.05417,-0.200795 h 0.1506 q 1.70676,0.0753 4.1163,0.853379 h 0.0502 q 0,-0.0251 -0.67768,-0.351391 v -7.554909 q 0,-1.28007 -1.25497,-1.73186 -1.25497,-0.45179 -1.25497,-1.43066 0,-1.02907 1.12948,-1.02907 1.55616,-0.0753 3.11232,-0.47689 1.58126,-0.42669 4.06609,-1.25497 v 33.808844 q 0,1.305167 1.25497,1.756954 1.25497,0.42669 1.25497,1.38047 0,1.02907 -1.15457,1.02907 h -6.09915 q -1.05417,0 -1.05417,-0.82828 z m 0,-17.745252 q -0.90358,-0.80318 -2.43464,-1.505962 -1.53106,-0.727881 -2.66053,-0.77808 h -0.0753 q -0.35139,0 -0.75298,0.150596 -0.90358,0.326292 -1.80715,0.677683 -0.87848,0.326292 -1.78206,0.652583 -0.47689,0.200795 -0.75298,0.501988 -1.45576,1.55616 -1.95775,3.790004 -0.42669,1.756955 -0.42669,3.463712 0,0.527087 0.0502,1.104372 0.27609,3.488812 1.88245,5.647357 1.55616,2.183645 3.8653,2.811129 0.85338,0.250994 1.73186,0.250994 0.27609,0 0.55219,-0.0251 0.45179,-0.0502 1.12947,-0.276093 0.57728,-0.200795 1.80715,-0.652584 1.22987,-0.476888 1.63146,-0.627484 z m 18.59864,-16.490286 q 3.36331,0 3.36331,3.26292 0,3.288018 -3.36331,3.288018 -3.36332,0 -3.36332,-3.288018 0,-3.26292 3.36332,-3.26292 z m 2.88642,31.976594 q 0,1.305167 1.25497,1.756954 1.25497,0.42669 1.25497,1.38047 0,1.02907 -1.12947,1.02907 h -8.50869 q -1.15457,0 -1.15457,-1.02907 0,-0.95378 1.25497,-1.38047 1.25497,-0.451787 1.25497,-1.756954 v -16.063593 q 0,-1.254969 -1.25497,-1.706757 -1.25497,-0.451789 -1.25497,-1.430664 0,-1.029074 1.12947,-1.029074 1.55616,-0.0753 3.11232,-0.501987 1.58126,-0.426689 4.041,-1.254968 z m 18.32253,-20.832473 h 0.55218 q 4.31709,0 8.1824,2.484837 l -0.45179,4.517886 q -0.1255,0.77808 -0.95378,0.77808 h -0.1004 q -0.70278,-0.0753 -1.02907,-0.853378 -0.92868,-2.033048 -2.40954,-2.911526 -1.43066,-0.853379 -3.53901,-0.853379 h -0.57728 q -2.45974,0.125497 -3.79001,1.405565 -1.22987,1.204769 -1.83225,2.936625 -0.62749,1.782055 -0.62749,3.9657 0,0.727882 0.0753,1.505962 0.25099,3.614309 1.93265,5.898351 2.20875,2.936626 4.81908,3.313116 0.40159,0.0753 0.85338,0.0753 2.05815,0 4.64338,-1.430664 1.60636,-0.853378 2.28404,-0.853378 0.35139,0 0.65259,0.200795 0.22589,0.225894 0.22589,0.552186 0,0.37649 -0.35139,1.129471 -0.40159,0.85338 -1.00397,1.38047 -1.50597,1.35536 -3.73981,1.85735 -2.20874,0.52709 -4.16649,0.52709 -4.91948,-0.0251 -8.28279,-2.73584 -3.33822,-2.710727 -3.79001,-7.705501 -0.1004,-1.104372 -0.1004,-2.183645 0,-1.380465 0.1757,-2.685632 0.35139,-2.309141 1.78205,-4.593183 1.50597,-2.434639 4.2418,-3.990799 2.76093,-1.58126 6.32504,-1.731857 z m 10.56684,10.566833 q 0.72788,-4.793979 3.8904,-7.730604 3.16252,-2.936626 8.33299,-2.986825 h 0.10039 q 5.24577,0 8.0569,3.011924 2.73583,3.011924 2.73583,7.755704 -0.0251,1.029074 -0.1004,1.681657 -0.0753,0.652584 -1.63146,0.652584 h -15.36081 q 0.0753,3.438613 1.93265,5.973649 1.88246,2.509936 4.64339,3.062122 0.80318,0.175696 1.63146,0.175696 2.20874,0 4.59318,-1.305167 1.60636,-0.853379 2.28404,-0.853379 0.35139,0 0.65259,0.200795 0.25099,0.250994 0.25099,0.577286 0,0.426689 -0.37649,1.104372 -0.32629,0.67768 -0.55219,0.90358 -0.20079,0.22589 -0.37649,0.40159 -2.93662,2.53503 -7.9063,2.53503 -6.92742,-0.0502 -10.36604,-4.417486 -2.66053,-3.363315 -2.66053,-7.931399 0,-1.355366 0.2259,-2.811129 z m 6.04894,-0.451789 h 11.9473 q 0,-2.459737 -1.33027,-4.919475 -1.15457,-2.133446 -4.29199,-2.133446 h -0.27609 q -3.13742,0.100397 -4.56808,2.38444 -1.40557,2.258942 -1.48087,4.668481 z m 30.24474,-10.165242 q 3.86531,0.200795 7.58001,2.509936 l -0.55218,4.668482 q -0.1255,0.828279 -1.02908,0.828279 h -0.1004 q -0.72788,-0.0502 -1.12947,-0.928676 -0.82828,-1.782055 -2.43464,-2.936626 -1.58126,-1.154571 -3.36331,-1.229869 h -0.0753 q -1.38046,0 -2.71073,0.702782 -1.30517,0.677683 -1.60636,2.108347 -0.1255,0.527086 -0.1255,0.928676 0,1.305167 1.10438,1.832254 1.70675,0.853378 3.99079,1.380465 3.31312,0.727882 6.12425,2.058148 2.83623,1.305167 3.11232,5.52186 v 0.250994 q 0,1.98285 -1.53106,3.9657 -1.65656,2.158543 -4.79398,3.237813 -1.93265,0.65259 -4.26689,0.72789 h -0.70278 q -3.18762,0 -6.40034,-0.92868 l -2.15855,-5.848152 0.0753,-0.602385 q 0.0502,-0.828279 1.07927,-0.828279 h 0.1255 q 0.62748,0.125497 1.02907,0.928676 1.10438,2.359341 2.61034,3.313117 1.53106,0.928673 3.8653,1.003973 h 0.30119 q 1.63146,0 3.63941,-0.778079 1.98285,-0.77808 2.05815,-2.811129 v -0.150596 q 0,-2.35934 -2.13345,-2.961725 -2.66053,-0.752981 -4.66848,-1.330267 -2.58523,-0.702782 -4.86928,-2.258942 -2.38444,-1.60636 -2.38444,-4.693582 v -0.125497 q 0.0251,-4.141395 3.28802,-5.948549 2.88643,-1.631459 6.40034,-1.631459 0.32629,0 0.65258,0.0251 z m 44.92787,25.977845 q -7.9565,0 -14.10584,-5.070074 -6.12425,-5.070072 -6.12425,-13.955247 0,-8.659281 5.94855,-13.905047 5.97365,-5.27087 14.28154,-5.27087 2.96172,0 6.29994,0.67768 3.36332,0.65259 6.67643,2.76093 l -0.62748,5.572064 q -0.2008,0.878478 -1.12947,0.878478 h -0.1004 q -0.70278,-0.0502 -1.20477,-1.029074 -1.55616,-3.313118 -3.8151,-4.392388 -2.25895,-1.07927 -6.09915,-1.07927 -5.32107,0 -9.51266,3.739801 -4.19159,3.714707 -4.19159,12.047696 0,5.321065 3.9406,10.26564 3.9406,4.919476 9.78875,5.195571 0.60238,0.0251 1.12947,0.0251 3.03702,0 4.99477,-0.90358 2.20875,-1.054174 3.76491,-4.392389 0.47689,-0.903577 1.17967,-1.029074 h 0.17569 q 0.92868,0 1.07928,0.903577 l 0.0753,0.702782 -2.28405,6.400334 q -2.73583,1.12948 -5.29596,1.48087 -2.56014,0.37649 -4.84418,0.37649 z m 28.36227,-25.927647 q 5.19557,0.200795 8.73458,3.940601 3.53901,3.739805 3.61431,8.885175 v 0.150596 q 0,5.195569 -3.68961,8.809877 -3.79,3.689608 -9.28676,3.840208 h -0.40159 q -5.12027,0 -8.80988,-3.76491 -3.73981,-3.790004 -3.73981,-8.960473 v -0.0753 q 0.0251,-5.672457 4.292,-9.562858 0.57728,-0.527087 1.58126,-0.878478 1.00397,-0.351391 2.86132,-1.029074 1.10437,-0.40159 2.43464,-0.878478 1.38047,-0.476888 2.30914,-0.476888 z m -0.57729,2.685632 h -0.27609 q -2.58523,0 -4.51788,2.585235 -2.13345,2.886427 -2.13345,7.153319 0,4.266892 2.05815,7.329015 2.08325,3.037026 4.86927,3.162516 h 0.3263 q 2.56013,0 4.46768,-2.585231 2.13345,-2.861328 2.13345,-7.12822 0,-4.266892 -2.08325,-7.303915 -2.08324,-3.062122 -4.84418,-3.212719 z m 24.3213,-0.250993 5.72265,-2.108347 q 0.82828,-0.301192 1.53106,-0.351391 0.2761,0 0.52709,0.0251 0.25099,0 0.55219,0 3.8402,0.175696 6.62623,3.112322 2.66053,2.911526 3.06212,7.027822 0.1004,1.029074 0.1004,2.033048 0,1.380465 -0.1757,2.635434 -0.35139,2.233843 -1.70675,4.417488 -0.75299,1.204769 -2.38444,2.459738 -0.62749,0.451788 -1.38047,0.752985 -4.41749,1.65655 -8.10709,2.98682 -0.55219,0.2008 -1.07928,0.2008 h -0.12549 q -1.58126,-0.0753 -3.16252,-0.55219 v 10.24054 q 0,1.28007 1.25496,1.73186 1.25497,0.45178 1.25497,1.43066 0,1.00397 -1.12947,1.00397 h -8.50868 q -1.15457,0 -1.15457,-1.00397 0,-0.97888 1.25496,-1.43066 1.25497,-0.45179 1.25497,-1.73186 v -30.545928 q 0,-1.254969 -1.25497,-1.706757 -1.25496,-0.451789 -1.25496,-1.430664 0,-1.029074 1.12947,-1.029074 1.55616,-0.0753 3.11232,-0.501987 1.58126,-0.426689 4.041,-1.254968 z m 0,18.096642 q 0.82828,0.702782 2.25894,1.380465 1.43066,0.652581 2.50994,0.677681 h 0.15059 q 0.27609,0 0.67768,-0.15059 0.90358,-0.326296 1.78206,-0.652588 0.90358,-0.326292 1.80715,-0.677683 0.45179,-0.150596 0.77808,-0.501987 1.40557,-1.531061 1.93266,-3.790004 0.42668,-1.731856 0.42668,-3.463712 0,-0.552187 -0.0502,-1.104373 -0.2761,-3.463712 -1.88246,-5.647357 -1.58126,-2.158545 -3.8653,-2.811129 -0.90358,-0.250993 -1.78205,-0.250993 -0.2761,0 -0.50199,0.0251 -0.47689,0.0502 -1.12947,0.276093 -0.52709,0.200795 -1.60636,0.602385 -1.05418,0.37649 -1.50596,0.552186 z m 27.15751,-31.675402 q 3.36332,0 3.36332,3.26292 0,3.288018 -3.36332,3.288018 -3.36331,0 -3.36331,-3.288018 0,-3.26292 3.36331,-3.26292 z m 2.88643,31.976594 q 0,1.305167 1.25497,1.756954 1.25497,0.42669 1.25497,1.38047 0,1.02907 -1.12947,1.02907 h -8.50869 q -1.15457,0 -1.15457,-1.02907 0,-0.95378 1.25497,-1.38047 1.25497,-0.451787 1.25497,-1.756954 v -16.063593 q 0,-1.254969 -1.25497,-1.706757 -1.25497,-0.451789 -1.25497,-1.430664 0,-1.029074 1.12947,-1.029074 1.55616,-0.0753 3.11232,-0.501987 1.58126,-0.426689 4.041,-1.254968 z m 5.67245,-10.26564 q 0.72788,-4.793979 3.8904,-7.730604 3.16252,-2.936626 8.33299,-2.986825 h 0.10039 q 5.24577,0 8.0569,3.011924 2.73583,3.011924 2.73583,7.755704 -0.0251,1.029074 -0.1004,1.681657 -0.0753,0.652584 -1.63146,0.652584 h -15.36081 q 0.0753,3.438613 1.93265,5.973649 1.88246,2.509936 4.64339,3.062122 0.80318,0.175696 1.63146,0.175696 2.20874,0 4.59318,-1.305167 1.60636,-0.853379 2.28404,-0.853379 0.35139,0 0.65259,0.200795 0.25099,0.250994 0.25099,0.577286 0,0.426689 -0.37649,1.104372 -0.32629,0.67768 -0.55219,0.90358 -0.20079,0.22589 -0.37649,0.40159 -2.93662,2.53503 -7.9063,2.53503 -6.92742,-0.0502 -10.36604,-4.417486 -2.66053,-3.363315 -2.66053,-7.931399 0,-1.355366 0.2259,-2.811129 z m 6.04894,-0.451789 h 11.9473 q 0,-2.459737 -1.33027,-4.919475 -1.15457,-2.133446 -4.29199,-2.133446 h -0.27609 q -3.13742,0.100397 -4.56808,2.38444 -1.40557,2.258942 -1.48087,4.668481 z m 37.77455,12.976373 -6.02384,2.20874 q -0.92868,0.3263 -1.58126,0.3263 h -1.05418 q -3.8653,-0.2008 -6.57603,-3.06213 -2.73583,-2.911524 -3.11232,-7.052919 -0.1004,-1.054173 -0.1004,-2.058148 0,-1.330266 0.17569,-2.585235 0.3263,-2.233843 1.73186,-4.442587 0.67768,-1.17967 2.35934,-2.459738 0.62749,-0.426689 1.38047,-0.752981 2.03305,-0.752981 4.04099,-1.505962 2.03305,-0.752981 4.0661,-1.505962 0.55219,-0.200795 1.05417,-0.200795 h 0.1506 q 1.70676,0.0753 4.1163,0.853379 h 0.0502 q 0,-0.0251 -0.67769,-0.351391 v -7.554909 q 0,-1.28007 -1.25497,-1.73186 -1.25496,-0.45179 -1.25496,-1.43066 0,-1.02907 1.12947,-1.02907 1.55616,-0.0753 3.11232,-0.47689 1.58126,-0.42669 4.0661,-1.25497 v 33.808844 q 0,1.305167 1.25496,1.756954 1.25497,0.42669 1.25497,1.38047 0,1.02907 -1.15457,1.02907 h -6.09914 q -1.05418,0 -1.05418,-0.82828 z m 0,-17.745252 q -0.90357,-0.80318 -2.43464,-1.505962 -1.53106,-0.727881 -2.66053,-0.77808 h -0.0753 q -0.35139,0 -0.75298,0.150596 -0.90357,0.326292 -1.80715,0.677683 -0.87848,0.326292 -1.78206,0.652583 -0.47688,0.200795 -0.75298,0.501988 -1.45576,1.55616 -1.95775,3.790004 -0.42669,1.756955 -0.42669,3.463712 0,0.527087 0.0502,1.104372 0.27609,3.488812 1.88245,5.647357 1.55616,2.183645 3.86531,2.811129 0.85337,0.250994 1.73185,0.250994 0.2761,0 0.55219,-0.0251 0.45179,-0.0502 1.12947,-0.276093 0.57729,-0.200795 1.80715,-0.652584 1.22987,-0.476888 1.63146,-0.627484 z m 51.55406,15.486308 q 0,1.305167 1.25497,1.756954 1.25497,0.42669 1.25497,1.38047 0,1.02907 -1.15457,1.02907 h -6.09915 q -1.05417,0 -1.05417,-0.82828 v -0.82828 q -0.47689,0.1757 -1.55616,0.60239 -1.07927,0.40159 -2.03305,0.72788 -2.38444,0.80318 -4.91947,1.05417 -0.40159,0.0251 -0.75298,0.0251 -2.33425,0 -4.39239,-1.53106 -3.26292,-2.484837 -3.26292,-10.391137 v -9.06087 q 0,-1.254969 -1.25497,-1.706757 -1.25497,-0.451789 -1.25497,-1.430664 0,-1.029074 1.12947,-1.029074 1.55616,-0.0753 3.11232,-0.501987 1.58126,-0.426689 4.0661,-1.254968 v 14.98432 q 0,5.346165 2.13345,7.404313 1.28007,1.254964 3.08722,1.254964 1.07927,0 2.43464,-0.451784 0.47689,-0.150596 1.33026,-0.476888 0.85338,-0.326292 1.43067,-0.552186 0.15059,-0.0502 0.42669,-0.150596 l 0.27609,-0.100398 v -15.988295 q 0,-1.254969 -1.25497,-1.706757 -1.25497,-0.451789 -1.25497,-1.430664 0,-1.029074 1.12948,-1.029074 1.55616,-0.0753 3.11232,-0.501987 1.58126,-0.426689 4.06609,-1.254968 z m 14.08078,-18.54843 q 0.50199,-0.175696 1.55616,-0.577286 1.05417,-0.40159 2.00795,-0.727881 2.40954,-0.853379 4.96967,-1.104373 0.35139,-0.0251 0.70279,-0.0251 2.35934,0 4.44258,1.58126 3.23782,2.484837 3.23782,10.366038 v 9.035771 q 0,1.305167 1.25497,1.756954 1.25497,0.42669 1.25497,1.38047 0,1.02907 -1.12947,1.02907 h -6.09915 q -1.05417,0 -1.05417,-0.82828 v -12.373984 q 0,-5.321065 -2.13345,-7.404313 -1.28007,-1.254968 -3.08722,-1.254968 -1.07927,0 -2.38444,0.426689 -0.55219,0.200795 -1.40556,0.527087 -0.82828,0.301192 -1.45577,0.552186 -0.57728,0.200795 -0.67768,0.250994 v 15.938096 q 0,1.305167 1.25497,1.756954 1.25497,0.42669 1.25497,1.38047 0,1.02907 -1.12948,1.02907 h -8.50868 q -1.15457,0 -1.15457,-1.02907 0,-0.95378 1.25497,-1.38047 1.25497,-0.451787 1.25497,-1.756954 v -16.063593 q 0,-1.254969 -1.25497,-1.706757 -1.25497,-0.451789 -1.25497,-1.430664 0,-1.029074 1.12947,-1.029074 1.55616,-0.0753 3.11232,-0.501987 1.58126,-0.426689 4.041,-1.254968 z m 24.74794,1.531061 q -0.30119,0 -2.20874,0.100397 h -0.1506 q -1.07927,0 -1.12947,-1.003974 v -0.0502 q 0,-0.677683 0.80318,-1.054173 0.47689,-0.225895 2.03305,-1.079273 0.40159,-0.200795 0.82828,-0.376491 0.0753,-0.0251 0.0753,-0.0502 0,-0.0251 -0.25099,-0.0251 v -3.790004 q 0,-1.430664 0.62748,-2.007947 0.62749,-0.60239 2.56014,-1.53106 0.82828,-0.40159 1.40556,-0.40159 1.20477,0 1.20477,1.15457 v 6.475634 l 5.34617,-0.100398 h 0.0251 q 1.00397,0 1.00397,1.154571 0,0.376491 -0.1004,0.928677 -0.35139,1.606359 -1.75695,1.606359 l -4.51789,-0.0251 v 15.235314 q 0,2.058148 1.40557,3.062123 1.43066,1.003974 2.91152,1.204774 v 1.73185 q -4.46768,0 -7.30391,-0.77808 -2.81113,-0.77808 -2.81113,-5.973648 z m 20.12972,-14.959225 q 3.36332,0 3.36332,3.26292 0,3.288018 -3.36332,3.288018 -3.36331,0 -3.36331,-3.288018 0,-3.26292 3.36331,-3.26292 z m 2.88643,31.976594 q 0,1.305167 1.25497,1.756954 1.25497,0.42669 1.25497,1.38047 0,1.02907 -1.12948,1.02907 h -8.50868 q -1.15457,0 -1.15457,-1.02907 0,-0.95378 1.25497,-1.38047 1.25496,-0.451787 1.25496,-1.756954 v -16.063593 q 0,-1.254969 -1.25496,-1.706757 -1.25497,-0.451789 -1.25497,-1.430664 0,-1.029074 1.12947,-1.029074 1.55616,-0.0753 3.11232,-0.501987 1.58126,-0.426689 4.041,-1.254968 z m 14.63292,0 q 0,1.305167 1.25496,1.756954 1.25497,0.42669 1.25497,1.38047 0,1.02907 -1.12947,1.02907 h -8.50868 q -1.15457,0 -1.15457,-1.02907 0,-0.95378 1.25496,-1.38047 1.25497,-0.451787 1.25497,-1.756954 v -27.885394 q 0,-1.28007 -1.25497,-1.73186 -1.25496,-0.45179 -1.25496,-1.43066 0,-1.02907 1.12947,-1.02907 1.55616,-0.0753 3.11232,-0.47689 1.58126,-0.42669 4.041,-1.25497 z m 32.4786,-20.832473 h 0.55219 q 4.31709,0 8.18239,2.484837 l -0.45179,4.517886 q -0.12549,0.77808 -0.95377,0.77808 h -0.1004 q -0.70278,-0.0753 -1.02907,-0.853378 -0.92868,-2.033048 -2.40954,-2.911526 -1.43067,-0.853379 -3.53901,-0.853379 h -0.57729 q -2.45974,0.125497 -3.79,1.405565 -1.22987,1.204769 -1.83226,2.936625 -0.62748,1.782055 -0.62748,3.9657 0,0.727882 0.0753,1.505962 0.25099,3.614309 1.93265,5.898351 2.20874,2.936626 4.81908,3.313116 0.40159,0.0753 0.85338,0.0753 2.05814,0 4.64338,-1.430664 1.60636,-0.853378 2.28404,-0.853378 0.35139,0 0.65258,0.200795 0.2259,0.225894 0.2259,0.552186 0,0.37649 -0.35139,1.129471 -0.40159,0.85338 -1.00398,1.38047 -1.50596,1.35536 -3.7398,1.85735 -2.20875,0.52709 -4.1665,0.52709 -4.91947,-0.0251 -8.28279,-2.73584 -3.33821,-2.710727 -3.79,-7.705501 -0.1004,-1.104372 -0.1004,-2.183645 0,-1.380465 0.1757,-2.685632 0.35139,-2.309141 1.78205,-4.593183 1.50596,-2.434639 4.24179,-3.990799 2.76093,-1.58126 6.32504,-1.731857 z m 28.68858,23.091417 -6.02384,2.20874 q -0.92868,0.3263 -1.58126,0.3263 h -1.05418 q -3.8653,-0.2008 -6.57603,-3.06213 -2.73583,-2.911524 -3.11232,-7.052919 -0.1004,-1.054173 -0.1004,-2.058148 0,-1.330266 0.1757,-2.585235 0.32629,-2.233843 1.73185,-4.442587 0.67769,-1.17967 2.35934,-2.459738 0.62749,-0.426689 1.38047,-0.752981 2.03305,-0.752981 4.041,-1.505962 2.03304,-0.752981 4.06609,-1.505962 0.55219,-0.200795 1.05418,-0.200795 h 0.15059 q 1.70676,0.0753 4.1163,0.853379 0.25099,0.0753 0.30119,0.125497 0.50199,0.200794 1.28007,0.451788 0.20079,0.0753 0.37649,0.0753 0.1506,0 0.25099,-0.0753 0.47689,-0.40159 0.65259,-0.652583 0.32629,-0.42669 0.87847,-0.42669 0.2761,0 0.50199,0.100398 0.92868,0.326292 0.92868,0.953776 v 19.426908 q 0,1.305167 1.25497,1.756954 1.25496,0.42669 1.25496,1.38047 0,1.02907 -1.15457,1.02907 h -6.09914 q -1.05418,0 -1.05418,-0.82828 z m 0,-17.720153 q -0.80318,-0.752981 -2.38444,-1.505961 -1.55616,-0.752981 -2.71073,-0.80318 h -0.0753 q -0.3514,0 -0.75299,0.150596 -0.90357,0.326292 -1.80715,0.677683 -0.87848,0.326292 -1.78205,0.652583 -0.47689,0.200795 -0.75299,0.501988 -1.45576,1.55616 -1.95775,3.790004 -0.42669,1.756955 -0.42669,3.463712 0,0.527087 0.0502,1.104372 0.2761,3.488812 1.88246,5.647357 1.55616,2.183645 3.8653,2.811129 0.85338,0.250994 1.73185,0.250994 0.2761,0 0.55219,-0.0251 0.45179,-0.0502 1.12947,-0.276093 0.57729,-0.200795 1.80716,-0.652584 1.22986,-0.476888 1.63145,-0.627484 z m 16.06358,12.850875 q 3.38841,0 3.38841,2.685632 v 2.058146 q 0,2.66054 -3.38841,2.66054 -3.38842,0 -3.38842,-2.66054 v -2.058146 q 0,-2.685632 3.38842,-2.685632 z m 28.18659,6.776828 q -1.12947,0 -1.12947,-1.00397 0,-0.92868 1.20477,-1.35537 1.22987,-0.451788 1.22987,-1.706756 v -26.479832 h -4.96967 v -1.65656 q 0,-1.07927 1.58126,-1.65656 1.60636,-0.60238 3.8151,-1.20476 1.28007,-0.3263 2.45974,-0.65259 1.17967,-0.32629 2.76093,-0.80318 v 32.453482 q 0,1.254968 1.20477,1.706756 1.22987,0.42669 1.22987,1.35537 0,1.00397 -1.12947,1.00397 z m 34.43633,-1.70676 q -2.63543,1.88246 -6.90232,2.38444 -0.62749,0.0753 -1.25497,0.0753 -3.41351,0 -6.07405,-2.08325 l -0.15059,-7.178414 q 2.48483,4.869277 5.77285,5.722655 1.25497,0.326289 2.35934,0.326289 1.83226,0 3.33822,-0.828276 2.33424,-1.204769 3.16252,-3.513911 0.47689,-1.305167 0.47689,-2.585235 0,-1.079272 -0.3263,-2.133446 -0.72788,-2.334241 -3.03702,-4.040997 -2.30914,-1.731857 -6.85213,-1.807155 l -0.0502,-1.531061 q 2.03305,-0.652583 4.0912,-1.556161 2.05815,-0.928676 3.13742,-2.76093 0.87848,-1.505962 0.87848,-3.011924 0,-0.426689 -0.0753,-0.878477 -0.32629,-1.882453 -1.55616,-3.16252 -1.40556,-1.455765 -3.58921,-1.681655 h -0.45179 q -2.25894,0 -3.8151,1.731853 -1.25497,1.380465 -1.78206,2.836229 l -0.90357,-4.568082 q 2.25894,-2.50994 4.56808,-3.41352 2.30914,-0.92867 4.49279,-0.92867 6.09914,0.0753 8.0318,4.84417 0.55218,1.35537 0.55218,2.710736 0,3.288017 -3.41351,6.525835 -0.85338,0.80318 -1.02908,0.928676 2.96173,1.455764 4.64339,4.36729 1.40556,2.509936 1.40556,5.170469 0,0.527087 -0.0251,0.828279 -0.45179,5.421463 -5.62226,9.211463 z m 23.26709,-31.825988 q -4.06606,0.0753 -4.81904,3.539008 -0.75298,3.438613 -0.75298,5.92345 v 12.499484 q 0,2.484837 0.82828,5.973648 0.82828,3.463708 4.74374,3.463708 2.6857,0 4.1163,-2.710727 1.4558,-2.710731 1.4558,-6.726629 v -12.499484 q 0,-4.015899 -1.3554,-6.877228 -1.2549,-2.58523 -4.1665,-2.58523 z m 0,-2.76093 q 5.6725,0 8.6593,3.48881 2.9868,3.463711 2.9868,8.157292 v 13.628956 q 0,4.768879 -3.4135,8.207492 -3.4135,3.413518 -8.2326,3.413518 -6.04891,0 -8.86004,-3.438617 -2.78603,-3.438613 -2.78603,-8.182393 v -13.628956 q 0,-4.74378 3.03703,-8.182392 3.06212,-3.46371 8.60904,-3.46371 z m 27.6093,2.76093 q -4.0661,0.0753 -4.8191,3.539008 -0.753,3.438613 -0.753,5.92345 v 12.499484 q 0,2.484837 0.8283,5.973648 0.8283,3.463708 4.7438,3.463708 2.6856,0 4.1163,-2.710727 1.4557,-2.710731 1.4557,-6.726629 v -12.499484 q 0,-4.015899 -1.3553,-6.877228 -1.255,-2.58523 -4.1665,-2.58523 z m 0,-2.76093 q 5.6724,0 8.6593,3.48881 2.9868,3.463711 2.9868,8.157292 v 13.628956 q 0,4.768879 -3.4135,8.207492 -3.4135,3.413518 -8.2326,3.413518 -6.049,0 -8.8601,-3.438617 -2.786,-3.438613 -2.786,-8.182393 v -13.628956 q 0,-4.74378 3.037,-8.182392 3.0621,-3.46371 8.6091,-3.46371 z m 29.5671,16.791472 v 9.537759 q 0,5.823053 -0.9789,9.010677 -0.7781,2.48483 -2.6355,4.86927 -1.8322,2.38444 -3.9406,3.41352 -2.0832,1.00397 -4.0159,1.00397 -0.6776,0 -1.0039,-0.32629 -0.3263,-0.27609 -0.3263,-0.87848 v -0.1004 q 0.05,-0.75298 0.1506,-0.82828 0.05,-0.10039 1.004,-0.45178 1.1294,-0.3263 1.9577,-0.80318 0.753,-0.45179 1.5562,-1.22987 1.6565,-1.63146 2.3593,-4.76888 0.7279,-3.338218 0.7279,-11.922201 v -3.589209 q 0,-8.558884 -0.7279,-11.872 -0.7028,-3.162518 -2.3593,-4.844178 -1.4809,-1.45576 -2.9116,-1.78205 -1.4306,-0.3514 -1.6063,-0.72789 -0.1255,-0.22589 -0.1255,-0.77808 0,-1.25496 1.1797,-1.25496 2.6103,0 5.321,1.65655 1.3805,0.82828 2.2088,1.90756 0.8282,1.05417 1.6565,2.33424 1.5562,2.484834 2.0331,5.722652 0.4769,3.212719 0.4769,6.70153 z m 7.831,12.725378 q 3.3884,0 3.3884,2.685632 v 2.058146 q 0,2.66054 -3.3884,2.66054 -3.3884,0 -3.3884,-2.66054 v -2.058146 q 0,-2.685632 3.3884,-2.685632 z"
             id="path8" /></g></g></g></g></svg>
